<svg width="302" height="249" viewBox="0 0 302 249" fill="none" xmlns="http://www.w3.org/2000/svg">
<path d="M150.495 172.668C149.705 172.101 149.324 171.349 149.235 170.57C148.578 170.959 147.912 171.331 147.202 171.667C145.933 172.278 144.726 171.942 143.883 171.216C143.102 171.738 142.073 171.844 141.025 171.136C140.688 170.906 140.342 170.694 140.005 170.464C139.818 170.623 139.641 170.791 139.472 170.977C140.981 172.039 141.54 174.686 139.508 176.058C138.735 176.58 137.972 177.12 137.218 177.66C137.44 177.926 137.626 178.244 137.759 178.625C139.863 184.812 142.871 190.672 146.634 196.018C146.927 196.443 147.078 196.859 147.131 197.257C148.48 197.594 150.637 197.541 152.022 197.505C153.122 197.479 154.249 197.426 155.341 197.231C155.527 197.195 155.962 197.054 155.962 197.054L156.646 196.655C156.646 196.655 156.992 196.416 157.178 196.328C157.933 194.327 157.906 191.362 158.057 189.645C158.305 186.795 158.412 183.927 158.563 181.068C156.202 177.881 153.655 174.907 150.486 172.659L150.495 172.668Z" fill="#82D2B4"/>
<path d="M277.012 165.693C276.479 168.605 275.565 171.552 274.668 174.199C277.411 173.677 276.923 168.348 277.012 165.693Z" fill="white"/>
<path d="M87.9511 46.6123C87.8889 52.5075 87.7558 58.4735 88.1729 64.3686C88.6966 64.4306 89.2291 64.5191 89.7971 64.6607C90.7556 64.8997 91.3503 65.4662 91.652 66.1566C92.7703 59.7923 96.6488 53.1625 102.373 50.4008C104.006 49.613 105.533 50.3831 106.305 51.5692C107.494 50.4274 108.701 49.3209 109.944 48.303C106.074 49.0023 102.036 48.9846 97.9446 48.2322C94.2347 47.5418 95.8145 41.921 99.4978 42.6026C106.793 43.9569 114.559 42.2662 120.301 37.4598C124.739 33.7422 127.961 28.6525 133.099 25.758C142.09 20.6861 153.202 24.0231 160.089 31.007C161.198 32.1312 161.11 33.512 160.435 34.5388C161.687 35.1761 162.938 35.8577 164.118 36.6543C164.411 34.4414 167.154 32.6888 168.964 34.8309C175.186 42.1689 179.091 50.7283 180.573 59.8277C182.268 52.7465 182.65 45.3112 181.496 38.1856C180.422 31.5824 175.949 21.5889 168.698 19.8806C168.876 20.2169 169.053 20.571 169.195 20.9339C169.044 20.5622 168.876 20.2169 168.698 19.8806C168.059 19.7301 167.393 19.6327 166.71 19.6239C164.225 19.5796 163.382 17.0215 164.181 15.3043C163 14.5696 161.713 13.9412 160.373 13.3658C160.116 15.5345 157.356 17.2782 155.447 15.2335C146.847 5.98361 129.443 4.39033 117.958 7.92211C104.938 11.923 91.8207 24.147 88.9451 37.6811C88.4392 40.0533 85.9186 40.2392 84.401 39.0885C83.9128 40.7172 83.6377 42.4344 83.4868 44.2047C85.2264 43.2665 87.9511 44.0719 87.9244 46.6477L87.9511 46.6123Z" fill="#82D2B4"/>
<path d="M172.399 239.453C172.399 239.453 163.329 214.429 157.32 202.79C156.184 203.046 155.013 203.152 154.072 203.241C152.084 203.418 149.883 203.515 147.771 203.259C147.771 203.294 147.77 203.321 147.753 203.356C145.8 210.004 144.904 216.554 144.806 223.467C144.771 225.892 142.33 226.742 140.608 226.043C140.058 228.397 139.65 230.858 139.375 233.363L172.399 239.453Z" fill="#82D2B4"/>
<path d="M99.2052 185.98C94.954 188.963 90.7116 191.938 86.4692 194.921V194.903C85.1557 195.832 82.4044 197.036 81.4902 198.399C79.6175 201.205 85.2267 205.622 87.0994 207.649C94.3708 215.522 109.196 231.026 109.196 231.026L103.874 234.036C103.874 234.036 86.3812 215.912 78.091 206.436C75.4018 203.365 73.68 199.612 76.1651 195.77C77.4254 193.832 79.6442 192.593 81.508 191.283C86.4249 187.83 91.3329 184.387 96.2498 180.935C99.3383 178.766 102.267 183.83 99.2052 185.98Z" fill="#323232"/>
<path d="M200.827 201.639C197.756 196.186 188.197 194.035 182.721 191.752C179.251 190.3 177.733 195.956 181.168 197.381C184.762 198.886 195.244 201.515 196.025 205.675C196.682 209.171 195.111 214.35 194.747 217.846C193.753 227.264 192.768 236.691 191.774 246.109C191.383 249.844 197.241 249.818 197.632 246.109C198.768 235.292 199.904 224.476 201.048 213.65C201.448 209.888 202.815 205.162 200.827 201.639Z" fill="#323232"/>
<path d="M233.896 230.141C233.896 230.141 234.393 208.331 229.662 195.629C226.547 187.264 219.74 183.316 211.734 179.899C207.758 178.209 203.8 177.031 200.072 174.792C197.037 172.969 194.09 170.959 191.241 168.853C189.271 167.392 187.354 169.038 187.079 170.968C188.951 172.296 191.002 173.393 193.638 173.774C191.002 173.402 188.943 172.296 187.079 170.968C186.928 172.004 187.247 173.119 188.286 173.898C193.904 178.058 199.655 181.643 206.258 183.989C210.927 185.644 215.835 187.866 219.749 190.946C222.42 193.035 223.529 195.673 224.586 198.815C227.142 206.383 228.606 214.35 229.991 222.192C230.55 225.37 233.896 230.141 233.896 230.141Z" fill="#323232"/>
<path d="M27.5287 185.927C24.3247 183.936 21.3782 188.981 24.5733 190.973C34.3804 197.071 42.9184 204.648 50.2138 213.58C52.5924 216.501 56.7194 212.34 54.3586 209.446C46.7614 200.134 37.7441 192.274 27.5376 185.927H27.5287Z" fill="#323232"/>
<path d="M164.198 15.2778C163.4 16.995 164.234 19.5531 166.728 19.5974C167.411 19.6063 168.077 19.7036 168.716 19.8541C167.66 17.8802 166.071 16.4374 164.198 15.2778Z" fill="#323232"/>
<path d="M135.631 239.71C135.631 239.71 139.374 236.337 139.537 233.789C134.034 219.971 127.333 206.552 119.647 193.7C123.641 189.362 128.017 185.326 132.667 181.644C134.904 187.92 137.921 193.93 141.764 199.391C141.915 199.604 142.084 199.781 142.252 199.94C142.19 200.48 142.288 201.029 142.59 201.507C142.465 201.719 142.35 201.949 142.27 202.224C140.176 209.349 139.217 216.475 139.111 223.892C139.093 225.229 139.821 226.079 140.77 226.468C142.492 227.176 144.933 226.318 144.968 223.892C145.066 216.979 145.962 210.42 147.915 203.782C147.924 203.746 147.924 203.72 147.933 203.684C150.045 203.941 152.255 203.844 154.234 203.667C155.175 203.587 156.346 203.472 157.482 203.215C163.491 214.855 168.479 227.469 172.561 239.878C173.192 241.79 175.117 242.224 176.582 241.666C176.032 240.002 175.535 238.312 175.242 236.515C175.543 238.303 176.032 240.002 176.582 241.666C177.833 241.188 178.756 239.985 178.206 238.329C173.91 225.291 168.647 212.014 162.302 199.816C163.757 196.842 164.228 193.142 164.387 189.486C165.452 190.929 166.544 192.337 167.707 193.638C169.136 195.24 171.088 194.585 172.047 193.204C172.375 194.594 172.695 195.983 173.005 197.364C176.422 212.315 178.863 227.495 180.345 242.755C180.496 244.287 181.579 245.181 182.777 245.455C184.481 245.844 186.416 244.959 186.203 242.755C184.676 226.973 182.191 211.261 178.659 195.806C175.89 183.697 172.748 171.155 166.934 160.081C165.186 156.753 160.127 159.701 161.876 163.029C166.02 170.916 168.692 179.643 170.884 188.371C165.151 181.564 160.988 173.279 153.613 168.039C153.577 168.012 153.533 167.995 153.497 167.968C156.897 164.968 159.639 161.268 162.408 157.515C162.994 156.718 163.065 155.93 162.825 155.257C166.482 158.09 170.005 161.091 173.635 163.967C174.132 164.357 174.283 164.401 174.319 164.383C174.319 164.454 174.39 164.667 174.674 165.224C175.508 166.871 176.413 168.482 177.283 170.11C181.321 177.678 185.359 185.247 189.398 192.823C191.173 196.143 196.232 193.195 194.457 189.876C190.56 182.564 186.655 175.262 182.759 167.951C182.377 167.242 182.005 166.525 181.623 165.817C180.38 163.498 179.493 161.374 177.532 159.63C173.023 155.638 168.159 151.867 163.296 148.309C162.524 147.742 161.76 147.654 161.103 147.857V145.786C161.103 145.175 160.935 144.671 160.677 144.264C163.234 141.98 165.55 139.404 167.565 136.598C173.76 127.977 176.475 117.851 178.037 107.521C179.67 106.875 181.241 105.556 182.59 104.44C186.158 101.484 188.173 97.1114 189.052 92.6413C190.17 86.9763 191.554 72.6368 182.715 72.5305C182.724 72.5128 182.741 72.4951 182.75 72.4686C187.747 60.7402 189.717 47.3567 186.904 34.7963C184.845 25.5906 177.212 14.358 166.89 14.1632C165.612 14.1367 164.778 14.8006 164.361 15.6857C166.233 16.8453 167.822 18.2881 168.878 20.262C176.129 21.9703 180.611 31.9638 181.676 38.567C182.83 45.6926 182.44 53.1279 180.753 60.2091C179.271 51.1097 175.357 42.5503 169.144 35.2123C167.334 33.0702 164.591 34.8228 164.299 37.0357C164.201 37.797 164.387 38.6113 165.009 39.346C173.227 49.0473 177.026 61.8467 175.277 74.4513C175.259 74.5664 175.277 74.6638 175.268 74.77C174.452 74.7611 173.635 74.7523 172.819 74.7434C171.088 74.0087 168.621 74.8585 168.621 77.3015C168.621 90.7205 148.367 88.1624 151.749 75.186C152.175 73.5573 151.208 72.1499 149.708 71.5923C146.042 70.2291 141.791 70.1052 137.912 70.1406C136.173 70.1583 135.25 71.4152 135.108 72.7518C134.992 73.0174 134.895 73.2918 134.859 73.6104C134.007 80.0278 129.126 85.383 122.265 84.6926C114.65 83.9314 111.81 77.3458 112.148 70.4504C112.227 68.8483 110.745 67.556 109.219 67.5294C105.358 67.4586 101.488 67.3789 97.6277 67.3081C98.4886 62.661 101.364 57.8458 105.518 55.8365C107.275 54.9867 107.32 53.2341 106.494 51.9595C105.722 50.7734 104.195 50.0033 102.562 50.7911C96.8379 53.5616 92.9594 60.1826 91.8411 66.5469C91.5394 65.8565 90.9536 65.2899 89.9862 65.051C89.4181 64.9093 88.8768 64.8208 88.362 64.7589C87.9449 58.8637 88.0691 52.8977 88.1401 47.0026C88.1667 44.4356 85.442 43.6213 83.7025 44.5596C83.5072 46.8167 83.4984 49.1535 83.4984 51.4815C83.4984 49.1447 83.4984 46.8167 83.7025 44.5596C82.8949 44.9933 82.3002 45.8076 82.2825 47.0026C82.2115 53.2518 82.0694 59.5895 82.5842 65.8299C82.5842 65.9096 82.6108 65.9715 82.6197 66.0423C77.9336 69.344 77.0638 77.8857 77.6851 83.6304C78.4306 90.5258 82.4777 103.21 90.9358 103.166C91.1755 105.317 91.5305 107.485 91.9742 109.654C91.8234 109.99 91.7169 110.371 91.6991 110.814C91.3707 118.815 91.0335 126.826 90.7051 134.828C89.3915 134.306 87.8827 134.536 87.0751 135.961C85.4687 138.811 83.8534 141.67 82.2469 144.52C82.1759 144.635 82.1404 144.759 82.0872 144.874C81.6967 144.928 81.3328 145.069 80.9956 145.29C80.0903 145.264 79.1939 145.68 78.6259 146.742C76.8153 150.115 74.6675 153.275 72.5463 156.452C71.9517 156.32 71.3038 156.364 70.6381 156.665C54.9999 163.684 38.3056 171.757 21.345 174.811C19.6587 175.111 19.0729 176.439 19.277 177.74C19.8894 177.546 20.4929 177.351 21.0166 177.085C20.4929 177.351 19.8894 177.537 19.277 177.74C19.5167 179.298 20.8923 180.803 22.907 180.44C33.5307 178.528 43.8526 174.12 53.8106 170.101C58.4879 168.216 63.1474 166.278 67.7803 164.268C66.8484 166.57 67.4164 168.136 68.0821 170.889C69.7861 177.891 71.4813 184.901 73.1853 191.903C74.0728 195.559 79.7264 194.01 78.83 190.354C77.2502 183.848 75.6704 177.333 74.0906 170.827C73.7534 169.446 73.496 168.012 73.0788 166.649C73.3273 166.446 73.7178 165.507 74.1084 164.861C76.7088 160.577 79.682 156.514 82.2469 152.212C104.728 177.864 135.631 239.71 135.631 239.71L6.68912 211.995C8.38429 199.55 5.8399 190.079 17.9901 182.742C19.9427 181.564 19.6232 179.254 18.354 178.041C17.005 178.528 15.7269 179.236 15.1501 180.971C15.7358 179.227 17.005 178.528 18.354 178.041C17.5286 177.254 16.3038 176.926 15.0258 177.696C4.79262 183.866 2.10342 194.815 0.576882 205.915C-1.4378 220.653 6.68912 211.995 6.68912 211.995L135.631 239.71ZM144.658 166.933C144.516 166.791 144.356 166.649 144.169 166.525C128.957 156.231 111.464 149.389 96.3852 138.882C96.5716 134.288 96.7669 129.703 96.9532 125.109C104.435 141.555 118.307 154.753 138.037 153.956C144.329 153.699 150.151 151.655 155.264 148.406V156.983C155.264 157.107 155.29 157.222 155.299 157.337C152.335 161.197 149.184 164.693 144.658 166.933ZM83.5339 83.6747C83.1167 80.2668 82.3535 69.2023 88.4241 70.7248C89.8176 71.07 90.9003 70.4681 91.5127 69.5476C91.5127 69.6803 91.495 69.8131 91.495 69.9459C91.4595 72.2207 93.5807 73.1059 95.2758 72.6368C95.7107 72.9643 96.2698 73.1678 96.9532 73.1767C100.077 73.2387 103.21 73.2918 106.334 73.3537C106.938 82.2938 112.494 89.915 122.265 90.57C131.735 91.2074 138.259 84.489 140.264 76.0181C142.066 76.0535 143.885 76.1774 145.643 76.5403C145.075 84.1438 149.992 91.2959 158.112 92.3492C166.074 93.3848 172.606 87.9146 174.141 80.612C175.925 80.6297 177.709 80.6563 179.484 80.674C181.082 80.6917 181.987 79.6561 182.235 78.4522C185.368 79.1161 183.664 90.0124 183.292 91.7119C182.697 94.3939 181.268 97.8372 179.014 100.094C179.253 97.9169 179.475 95.7482 179.688 93.5884C180.052 89.8531 174.194 89.8708 173.831 93.5884C173.511 96.8812 173.174 100.227 172.748 103.555C172.446 104.122 172.34 104.759 172.499 105.396C171.257 114.257 169.189 123.002 164.485 130.694C158.769 140.033 149.344 147.557 138.046 148.096C112.574 149.309 98.4354 123.1 96.5894 101.227C96.5183 100.431 96.19 99.8111 95.7196 99.3508C95.4267 97.8195 94.1132 96.5095 92.1872 97.1025C86.5958 98.8463 83.9776 87.2596 83.5339 83.657V83.6747ZM116.496 188.539C107.612 174.341 97.5301 160.878 86.587 148.362C86.8532 148.141 87.0928 147.875 87.297 147.521C88.3709 145.618 89.4448 143.715 90.5187 141.812C106.05 153.115 124.209 160.294 140.193 170.898C140.531 171.119 140.877 171.341 141.214 171.571C142.261 172.279 143.282 172.173 144.072 171.65C144.906 172.385 146.122 172.713 147.391 172.102C148.101 171.766 148.767 171.394 149.424 171.004C149.512 171.783 149.894 172.536 150.684 173.102C153.852 175.35 156.4 178.333 158.76 181.511C158.61 184.37 158.503 187.229 158.255 190.088C158.104 191.806 158.13 194.771 157.376 196.771C157.376 196.771 155.752 197.603 155.539 197.665C155.725 197.63 155.326 197.727 155.539 197.665C154.447 197.86 153.329 197.904 152.219 197.94C150.826 197.975 148.669 198.028 147.329 197.692C147.276 197.294 147.125 196.877 146.832 196.453C143.069 191.106 140.06 185.247 137.957 179.059C137.824 178.679 137.637 178.36 137.415 178.094C138.179 177.554 138.942 177.015 139.705 176.492C141.738 175.12 141.179 172.474 139.67 171.411C138.88 170.854 137.833 170.721 136.75 171.447C129.454 176.386 122.567 182.122 116.505 188.539H116.496Z" fill="#323232"/>
<path d="M289.218 218.552C288.863 221.641 288.198 224.553 287.523 227.935C288.198 224.553 288.872 221.641 289.218 218.552C288.162 218.375 287.017 218.702 286.254 219.818C282.89 224.704 276.544 227.828 270.616 225.97C266.648 224.722 263.223 221.349 260.24 218.623C254.338 213.223 245.632 205.655 243.812 197.503C243.475 196.007 242.339 195.387 241.168 195.423C239.552 195.467 237.875 196.751 238.123 198.733C236.437 204.451 234.742 210.17 233.011 215.879C230.828 223.084 228.582 230.271 226.186 237.397C224.988 240.973 230.642 242.504 231.831 238.946C235.408 228.315 238.647 217.569 241.833 206.815C243.12 208.682 244.567 210.435 245.934 212.099C250.203 217.277 255.031 222.119 260.267 226.333C264.554 229.776 269.054 232.52 274.796 232.307C278.044 232.183 281.08 231.263 283.778 229.732C277.858 249.789 284.657 246.673 284.657 246.673C284.657 246.673 283.929 250.657 291.526 224.067C291.703 223.438 291.677 222.872 291.508 222.385C292.467 220.535 290.967 218.826 289.218 218.534V218.552Z" fill="#323232"/>
<path d="M296.487 149.749C296.922 149.182 297.295 148.536 297.597 147.81C299.78 142.482 303.081 134.435 301.031 128.638C299.105 123.194 293.842 121.477 288.73 123.044C286.538 119.839 282.038 118.644 278.098 119.034C276.456 115.139 272.471 112.643 268.166 112.599C264.856 112.563 262.388 113.891 260.392 115.865C260.338 111.342 260.258 106.81 260.125 102.287C259.965 96.8517 259.77 91.3991 259.3 85.9731C258.918 81.565 258.208 76.7144 253.531 74.8644C240.12 69.5446 242.881 94.4087 242.765 100.578C242.597 108.925 242.552 117.272 242.606 125.619C242.65 133.435 240.449 141.18 240.91 148.987C241.425 157.689 245.845 166.098 248.481 174.303C249.626 177.87 250.851 181.066 249.919 184.774C249.546 186.279 249.04 187.784 248.454 189.236C247.034 188.439 244.895 189.129 244.194 190.723C244.629 191.44 244.824 192.157 245.543 192.874C244.824 192.157 244.638 191.44 244.194 190.723C243.963 191.245 243.892 191.856 244.043 192.546C246.227 202.301 255.643 211.267 263.311 217.056C266.933 219.791 271.45 222.509 276.127 222.588C281.373 222.677 284.79 218.977 287.488 214.932C287.63 214.719 287.736 214.498 287.816 214.286C288.89 211.418 284.372 209.072 282.429 211.975C282.287 212.197 282.136 212.4 281.994 212.604C281.772 214.055 281.657 215.569 281.657 217.207C281.657 215.578 281.772 214.055 281.994 212.604C279.269 216.41 276.544 217.561 271.929 215.525C268.583 214.047 265.699 211.665 263.019 209.231C258.812 205.407 253.833 200.61 251.188 195.166C251.854 195.016 252.466 194.564 252.848 193.706C254.605 189.846 256.495 185.35 256.273 181.039C255.865 173.32 251.365 165.142 248.951 157.866C248.41 156.237 247.957 154.661 247.593 153.086C248.676 154.635 251.312 155.21 252.617 153.086C255.315 148.695 257.711 144.181 259.886 139.516C260.96 137.206 261.945 134.869 262.974 132.541C263.764 130.762 265.344 126.009 266.595 130.443C267.554 133.816 265.619 138.631 264.714 141.871C264.021 144.332 263.285 146.783 262.504 149.218C262.193 150.2 262.539 151.351 263.258 152.059C267.891 156.671 273.518 163.531 272.764 170.426C272.355 174.161 278.222 174.126 278.621 170.426C279.358 163.61 275.302 156.83 270.713 151.492C271.468 151.395 272.169 151.183 272.817 150.882C274.255 152.546 276.402 153.635 278.746 153.891C281.461 154.192 283.742 153.05 285.42 151.236C287.86 153.05 291.411 153.289 294.171 151.705C294.126 151.944 294.109 152.201 294.126 152.484C294.783 160.583 297.197 167.337 292.662 174.79C290.257 178.738 287.701 182.473 286.147 186.846C283.751 193.564 281.532 200.353 279.287 207.116C278.541 209.355 280.485 210.798 282.331 210.683C283.432 210.612 284.497 210.001 284.94 208.674C287.257 201.716 289.431 194.688 292.005 187.828C293.62 183.5 297.818 178.534 299.966 173.515C302.913 166.655 300.57 159.565 299.993 152.484C299.824 150.466 298.023 149.536 296.461 149.713L296.487 149.749ZM258.545 128.239C254.969 135.666 251.907 143.119 247.567 150.174C247.372 150.492 247.265 150.802 247.194 151.112C246.812 148.855 246.67 146.562 246.839 144.101C247.15 139.649 248.09 135.25 248.383 130.797C248.969 121.663 248.41 112.351 248.57 103.189C248.65 98.8699 248.747 94.5503 248.845 90.2396C248.88 88.8322 248.144 80.5559 250.371 80.0957C254.489 79.2548 254.028 95.6567 254.117 97.9758C254.454 106.81 254.596 115.661 254.596 124.513C254.596 125 254.694 125.416 254.871 125.779C255.297 127.398 257.161 128.478 258.696 127.974C258.652 128.071 258.599 128.16 258.554 128.257L258.545 128.239ZM269.95 145.588C270.847 142.942 271.761 139.994 272.293 137.082C272.204 139.738 272.684 145.066 269.95 145.588ZM272.746 131.93C272.648 128.735 271.681 125.894 269.169 123.982C266.134 121.672 263.587 122.158 261.563 123.955C262.814 121.592 264.394 119.149 266.835 118.556C271.051 117.529 272.852 120.839 273.065 124.345C273.216 126.841 272.994 129.39 272.746 131.922V131.93ZM284.142 131.576C283.902 135.666 283.316 139.729 282.739 143.774C282.713 143.862 282.677 143.942 282.66 144.039C282.544 145.341 282.012 146.491 281.071 147.474C279.118 148.474 277.769 148.076 277.024 146.323C277.352 145.518 277.609 144.65 277.769 143.721C278.364 140.286 278.186 136.569 278.453 133.081C278.657 130.435 279.056 127.576 279.038 124.787C280.325 124.716 281.772 124.787 282.784 125.46C284.781 126.779 284.257 129.443 284.142 131.576ZM293.594 141.791C293.035 143.482 292.689 146.456 290.798 147.022C288.828 147.615 288.384 146.235 288.508 144.624C289.343 139.507 290.55 133.869 290.239 128.682C298.333 126.212 294.978 137.587 293.585 141.791H293.594Z" fill="#323232"/>
<path d="M131.68 61.2883C126.248 59.2525 119.84 58.8807 114.249 60.5802C110.654 61.669 112.19 67.3163 115.802 66.2098C120.479 64.7936 125.6 65.2184 130.126 66.9179C133.659 68.2457 135.185 62.5984 131.68 61.2883Z" fill="#323232"/>
<path d="M165.379 71.0692C167.828 73.9372 171.955 69.7858 169.524 66.9356C165.796 62.5717 158.527 62.1823 153.388 63.7313C149.785 64.8112 151.32 70.4585 154.941 69.3609C158.199 68.3784 162.974 68.2367 165.379 71.0604V71.0692Z" fill="#323232"/>
<path d="M123.612 77.8407C127.384 77.8407 127.384 71.9987 123.612 71.9987C119.84 71.9987 119.84 77.8407 123.612 77.8407Z" fill="#323232"/>
<path d="M157.462 80.5139C161.234 80.5139 161.234 74.6719 157.462 74.6719C153.69 74.6719 153.69 80.5139 157.462 80.5139Z" fill="#323232"/>
<path d="M138.806 103.767C140.111 103.935 141.424 104.103 142.729 104.28C144.256 104.475 145.72 102.793 145.658 101.359C145.578 99.6068 144.362 98.6509 142.729 98.4384C141.424 98.2702 140.111 98.102 138.806 97.925C137.28 97.7303 135.815 99.4121 135.877 100.846C135.957 102.599 137.173 103.555 138.806 103.767Z" fill="#323232"/>
<path d="M137.28 128.498C143.67 129.198 150.095 124.382 154.622 120.373C156.663 118.567 154.897 115.557 152.554 115.389C143.324 114.708 134.093 114.026 124.863 113.344C124.34 113.132 123.798 113.132 123.283 113.282C121.757 113.442 121.011 114.734 121.047 116.071C120.985 116.797 121.189 117.567 121.783 118.257C125.618 122.692 131.209 127.834 137.289 128.498H137.28ZM144.673 120.647C142.17 122.134 139.445 123.117 136.916 122.488C135.025 122.019 133.224 120.975 131.546 119.673C135.922 120.001 140.297 120.32 144.673 120.647Z" fill="#323232"/>
<path d="M159.61 11.0733C149.625 0.336309 129.834 -1.85888 116.423 2.2571C101.548 6.83336 86.6199 20.5799 83.3184 36.0967C83.0432 37.3979 83.5846 38.4335 84.4189 39.062C85.9454 40.2127 88.4571 40.0268 88.963 37.6546C91.8386 24.1205 104.956 11.8965 117.976 7.89555C129.452 4.36378 146.856 5.94821 155.465 15.207C157.373 17.2605 160.134 15.5079 160.391 13.3393C159.441 12.9321 158.474 12.5426 157.507 12.1532C158.474 12.5426 159.45 12.9321 160.391 13.3393C160.48 12.5869 160.267 11.7814 159.61 11.0733Z" fill="#323232"/>
<path d="M160.098 30.9893C153.211 24.0054 142.099 20.6772 133.109 25.7403C127.97 28.6437 124.748 33.7245 120.31 37.4421C114.568 42.2485 106.802 43.9303 99.5068 42.5849C95.8236 41.9033 94.2438 47.5329 97.9537 48.2145C102.045 48.9757 106.083 48.9846 109.953 48.2853C111.985 46.6389 114.124 45.2227 116.503 44.2667C114.124 45.2138 111.977 46.6301 109.953 48.2853C116.157 47.17 121.917 44.2136 126.656 39.4957C130.623 35.5567 134.236 30.352 140.12 29.3164C146.057 28.2719 151.871 30.9628 155.962 35.1053C157.498 36.6632 159.53 35.9197 160.453 34.5034C159.113 33.8218 157.773 33.2022 156.539 32.5826C157.782 33.2022 159.113 33.8218 160.453 34.5034C161.119 33.4766 161.216 32.1046 160.107 30.9716L160.098 30.9893Z" fill="#323232"/>
</svg>
