<svg viewBox="30 40 140 158" fill="none" xmlns="http://www.w3.org/2000/svg">
  <path d="M67.5 197.3L108.7 134L72.2 110.2L31 173.5L57.4 173.5L67.5 197.3Z" fill="#3CA5EE"/>
  <path d="M133.4 197.3L92.2 134L128.7 110.2L170 173.5L143.5 173.5L133.4 197.3Z" fill="#3CA5EE"/>
  <path d="M60.5 128.5L140.5 128L148.7 141C139 152 125.6 159.7 110.5 162.1L100.5 147L90.4 162.3C75.2 160 61.6 152.5 51.8 141.6L60.5 128.5Z" fill="#2898BA"/>
  <path d="M100 160C133.1 160 160 133.1 160 100C160 66.8 133.1 40 100 40C66.8 40 40 66.8 40 100C40 133.1 66.8 160 100 160Z" fill="#D8AB2A"/>
  <path d="M100 152C128.7 152 152 128.7 152 100C152 71.2 128.7 48 100 48C71.2 48 48 71.2 48 100C48 128.7 71.2 152 100 152Z" fill="#C99724"/>
  <path d="M100 150C127.6 150 150 127.6 150 100C150 72.3 127.6 50 100 50C72.3 50 50 72.3 50 100C50 127.6 72.3 150 100 150Z" fill="#FAD268"/>
  <path d="M138.6 68C147.2 78.1 151.3 91.3 150.1 104.5C148.9 117.7 142.6 129.9 132.4 138.4C122.2 146.9 109.1 151 95.9 149.8C82.7 148.7 70.5 142.3 62 132.1C67.1 138.2 76 140.7 86.8 139C97.6 137.3 109.4 131.6 119.5 123C129.7 114.5 137.4 103.9 141 93.6C144.6 83.3 143.8 74.1 138.6 68Z" fill="#F0C258"/>
  <path d="M110.2 65.3V133H96.8V80.7L80.7 85.8V75.2L108.7 65.3H110.2Z" fill="#866416"/>
</svg>
