<svg xmlns="http://www.w3.org/2000/svg" viewBox="0 0 2290 297">
  <g fill="#45b6a5">
    <path d="M0,97.58c0-2.12,1.34-4.04,3.29-4.84L240.3,1.31c3.37-1.3,7,1.21,7,4.84v80.09c0,2.33-1.59,4.42-3.88,4.99L6.46,152.69c-3.29,0.84-6.46-1.62-6.46-4.99v-50.11h0Z"/>
    <path d="M0,169.95c0-2.37,1.62-4.42,3.88-4.99l236.97-61.41c3.25,-0.84,6.41,1.62,6.41,4.99v79.73c0,2.54-1.87,4.7-4.42,5.08L5.91,225.13c-3.12,0.46-5.91-1.95-5.91-5.12v-50.11 v0.04 h0Z"/>
    <path d="M0,241.73c0-2.58,1.91-4.74,4.46-5.12l236.97-31.59c3.08,-0.42,5.87,2,5.87,5.12v81.69c0,2.83-2.29,5.16-5.16,5.16H5.16c-2.87,0-5.16-2.33-5.16-5.16v-50.09Z"/>
    <path d="M1357.34,286.2 c-1.11,0 -2.04,-0.9 -2.04,-2.04 V109.47 c0,-0.82 0.54,-1.61 1.29,-1.9 l32.22,-12.36 c0.25,-0.11 0.47,-0.14 0.72,-0.14 c0.39,0 0.82,0.11 1.15,0.36 c0.54,0.39 0.9,1 0.9,1.68 v187.05 c0,1.11 -0.9,2.04 -2.04,2.04 h-32.22 h0.04 Z"/>
  </g>

  <g fill="#040000">
    <path d="M2215.63,288.92c-13.73,0-27.02-3.19-39.53-9.43-9.64-4.84-19.46-11.76-32.11-28.82-3.15-4.26-3.01-4.3-6.59-10.18-.32-.5-.39-1.15-.18-1.72.22-.57.61-1.04,1.18-1.25l27.49-10.75c.25-.11.5-.14.75-.14.65,0,1.25.32,1.65.86,6.06,8.53,13.19,15.16,21.22,19.75,8.42,4.8,17.81,7.24,27.92,7.24,5.3,0,10.25-.97,14.69-2.9,4.44-1.94,8.35-4.48,11.61-7.6,3.26-3.12,5.74-6.77,7.42-10.9,1.68-4.09,2.54-8.49,2.54-13.05,0-6.74-1.15-12.58-3.44-17.42-2.29-4.84-7.96-10.32-12.26-13.8-4.87-3.94-8.85-6.74-14.12-9.43-5.27-2.69-11.25-5.3-17.02-8.17-6.88-3.44-16.81-7.74-23.58-11.97-6.74-4.19-12.83-9.39-18.14-15.41-5.27-5.99-9.61-13.19-12.87-21.4-3.26-8.17-4.91-18.06-4.91-29.35,0-9.39,1.65-18.17,4.91-26.09,3.26-7.96,7.96-14.91,13.98-20.68,6.02-5.77,13.33-10.36,21.75-13.58,8.42-3.26,17.92-4.91,28.28-4.91,12.76,0,24.51,2.94,34.98,8.71,8.89,4.91,20.6,13.08,32.57,32.87.33.5.4,1.15.18,1.72-.18.57-.65,1.04-1.18,1.25l-27.27,10.36c-.25.07-.47.14-.72.14-.68,0-1.29-.32-1.68-.9-3.15-4.73-7.38-8.85-12.54-12.22-3.12-2.04-6.74-3.8-10.68-5.27-3.94-1.43-8.53-2.15-13.58-2.15-10.11,0-18.17,2.87-23.94,8.53-5.84,5.73-8.71,13.05-8.71,22.29,0,6.74,1.29,12.58,3.8,17.42,2.51,4.8,5.81,9.21,9.78,13.05,3.98,3.87,8.57,7.24,13.58,10.14,5.41,3.12,12.79,6.49,18.78,9.64,6.34,3.37,13.4,6.59,20.18,10.82,6.77,4.23,13.08,8.64,19.25,14.52,6.16,5.88,12.18,14.05,15.66,22.11,3.48,8.06,5.27,17.88,5.27,29.17,0,10.32-1.94,19.86-5.81,28.28-3.83,8.42-9.14,15.73-15.77,21.75-6.63,6.02-14.55,10.72-23.55,13.98-9.03,3.26-18.85,4.91-29.21,4.91 l-0.04,-0.04 Z"/>
    <path d="M428.65,289.64c-10.82,0-21.15-2.26-30.64-6.7-8.53-4.01-24.26-18.42-30.43-29.57-.29-.5-.32-1.15-.14-1.68.22-.54.65-1,1.18-1.18l29.42-11.04c.25-.07.47-.14.72-.14.68,0,1.33.32,1.72.93,2.58,3.98,6.13,7.42,10.57,10.21,4.91,3.12,10.21,4.7,15.77,4.7,10.25,0,17.78-3.15,23.01-9.61,5.16-6.38,7.78-14.73,7.78-24.84V34.24c0-1.11.9-2.04,2.04-2.04h32.18c1.11,0,2.04,0.9,2.04,2.04v188.34c0,9.89-1.65,19.03-4.91,27.2-3.23,8.17-7.81,15.3-13.58,21.22-5.77,5.88-12.72,10.54-20.68,13.76-7.96,3.26-16.74,4.91-26.09,4.91 l0.04,-0.04 Z"/>
    <path d="M650.17,286.02c-1.11,0-2.04-.9-2.04-2.04V34.24c0-1.11.9-2.04,2.04-2.04h65.05c12.97,0,24.8,1.97,35.16,5.88,10.36,3.91,19.17,9.39,26.27,16.34,7.1,6.95,12.58,15.2,16.31,24.59,3.73,9.39,5.63,19.71,5.63,30.64s-1.9,21.25-5.63,30.64c-3.73,9.39-9.25,17.67-16.34,24.59-7.1,6.92-15.95,12.4-26.27,16.34-10.36,3.91-22.18,5.88-35.16,5.88h-28.78c-1.11,0-2.04.9-2.04,2.04v94.87c0,1.11-.9,2.04-2.04,2.04h-32.18 l0.04,-0.04 Z M686.44,64.17c-1.11,0-2.04.9-2.04,2.04v86.84c0,1.11.9,2.04,2.04,2.04h28.78c15.41,0,27.24-4.23,35.19-12.62,7.92-8.39,11.97-19.43,11.97-32.83s-4.01-24.44-11.97-32.83c-7.96-8.39-19.78-12.62-35.19-12.62h-28.78 v-0.04 Z"/>
    <path d="M1013.27,286.02c-.82,0-1.61-.54-1.9-1.29l-48.71-126.87c-.25-.61-.14-1.33.22-1.86.39-.54,1-.9,1.68-.9h.75c15.41,0,27.23-4.23,35.16-12.62,7.92-8.39,11.97-19.43,11.97-32.83s-4.02-24.44-11.97-32.83c-7.96-8.39-19.78-12.62-35.19-12.62h-28.78c-1.11,0-2.05.9-2.05,2.04v217.76c0,1.11-.89,2.04-2.04,2.04h-32.19c-1.11,0-2.04-.9-2.04-2.04V34.24c0-1.11.89-2.04,2.04-2.04h65.05c12.97,0,24.84,1.97,35.16,5.88,10.36,3.91,19.17,9.39,26.27,16.31,7.1,6.92,12.58,15.2,16.31,24.59,3.73,9.39,5.63,19.71,5.63,30.64s-1.9,21.25-5.63,30.64c-3.73,9.39-9.25,17.67-16.31,24.59-4.62,4.52-10.14,8.49-16.34,11.79-.9.47-1.33,1.58-.94,2.51l39.97,104.08c.25.61.14,1.33-.22,1.86-.39.54-1,.9-1.68.9 h-34.26 l0.04,0.04 Z"/>
    <path d="M1107.1,286.2 c-1.11,0 -2.04,-0.9 -2.04,-2.04 V34.39 c0,-1.11 0.9,-2.04 2.04,-2.04 h140.99 c1.11,0 2.04,0.9 2.04,2.04 v30.39 c0,1.11 -0.9,2.04 -2.04,2.04 h-104.72 c-1.11,0 -2.04,0.9 -2.04,2.04 v71.18 c0,1.11 0.9,2.04 2.04,2.04 h86.52 c1.11,0 2.04,0.9 2.04,2.04 v30.39 c0,1.11 -0.9,2.04 -2.04,2.04 h-86.52 c-1.11,0 -2.04,0.9 -2.04,2.04 v71.18 c0,1.11 0.9,2.04 2.04,2.04 h104.72 c1.11,0 2.04,0.9 2.04,2.04 v30.39 c0,1.11 -0.9,2.04 -2.04,2.04 h-140.99 v-0.11 Z"/>
    <path d="M1449.37,32.38 h-151.85 c-1.13,0 -2.04,0.91 -2.04,2.04 v30.36 c0,1.13 0.92,2.04 2.04,2.04 h151.85 c1.13,0 2.04,-0.91 2.04,-2.04 v-30.36 c0,-1.13 -0.91,-2.04 -2.04,-2.04 Z"/>
    <path d="M1578.4,289.82 c-12.26,0 -23.73,-2.37 -34.08,-7.06 c-10.36,-4.7 -19.46,-11.18 -27.02,-19.21 c-7.6,-8.06 -13.55,-17.7 -17.78,-28.64 c-4.19,-10.93 -6.34,-22.94 -6.34,-35.7 V34.39 c0,-1.11 0.9,-2.04 2.04,-2.04 h32.18 c1.11,0 2.04,0.9 2.04,2.04 v162.96 c0,9.14 1.29,17.38 3.8,24.48 c2.54,7.1 6.06,13.19 10.54,18.14 c4.44,4.95 9.71,8.78 15.59,11.43 c5.88,2.65 12.29,3.98 19.03,3.98 s13.15,-1.33 19.03,-3.98 c5.88,-2.65 11.15,-6.49 15.59,-11.43 c4.44,-4.95 7.99,-11.04 10.5,-18.14 c2.54,-7.1 3.8,-15.3 3.8,-24.48 V34.39 c0,-1.11 0.9,-2.04 2.04,-2.04 h32.18 c1.11,0 2.04,0.9 2.04,2.04 v164.76 c0,12.76 -2.15,24.77 -6.34,35.7 c-4.23,10.97 -10.18,20.61 -17.78,28.64 c-7.56,8.03 -16.67,14.52 -27.02,19.21 c-10.36,4.7 -21.83,7.06 -34.08,7.06 l0.04,0.07 Z"/>
    <path d="M1840.96,286.02c-.82,0-1.61-.54-1.9-1.29l-48.71-126.87c-.25-.61-.14-1.33.22-1.86.39-.54,1-.9,1.68-.9h.75c15.41,0,27.24-4.23,35.19-12.62,7.92-8.39,11.97-19.43,11.97-32.83s-4.01-24.44-11.97-32.83c-7.96-8.39-19.78-12.62-35.19-12.62h-28.78c-1.11,0-2.04.9-2.04,2.04v217.76c0,1.11-.9,2.04-2.04,2.04h-32.22c-1.11,0-2.04-.9-2.04-2.04V34.24c0-1.11.9-2.04,2.04-2.04h65.05c12.97,0,24.84,1.97,35.16,5.88,10.36,3.91,19.17,9.39,26.27,16.31,7.1,6.95,12.58,15.2,16.31,24.59,3.73,9.39,5.63,19.71,5.63,30.64s-1.9,21.25-5.63,30.64c-3.73,9.39-9.21,17.67-16.31,24.59-4.66,4.55-10.14,8.49-16.38,11.83-.9.47-1.33,1.58-.93,2.51l39.96,104.08c.25.61.14,1.33-.22,1.86-.39.54-1,.9-1.68.9 h-34.26 h0.07 Z"/>
    <path d="M2063.03,286.2 c-1.11,0 -2.04,-0.9 -2.04,-2.04 V121.19 c0,-9.14 -1.29,-17.38 -3.8,-24.48 c-2.51,-7.1 -6.06,-13.19 -10.5,-18.14 c-4.44,-4.95 -9.71,-8.78 -15.59,-11.43 c-5.88,-2.65 -12.29,-3.98 -19.03,-3.98 s-13.15,1.33 -19.03,3.98 c-5.88,2.65 -11.15,6.49 -15.59,11.43 c-4.44,4.91 -7.99,11.04 -10.5,18.14 c-2.54,7.1 -3.8,15.34 -3.8,24.48 v162.96 c0,1.11 -0.9,2.04 -2.04,2.04 h-32.18 c-1.11,0 -2.04,-0.9 -2.04,-2.04 V119.4 c0,-12.76 2.15,-24.77 6.34,-35.7 c4.19,-10.93 10.18,-20.57 17.78,-28.67 c7.56,-8.06 16.67,-14.52 27.02,-19.21 c10.36,-4.7 21.83,-7.06 34.08,-7.06 s23.73,2.37 34.08,7.06 c10.36,4.7 19.46,11.18 27.02,19.21 c7.6,8.06 13.58,17.7 17.78,28.64 c4.19,10.93 6.34,22.94 6.34,35.73 v164.76 c0,1.11 -0.9,2.04 -2.04,2.04 h-32.26 Z"/>
    <path d="M787.73,289.67c13.01,0,23.55-10.54,23.55-23.55s-10.54-23.55-23.55-23.55-23.55,10.54-23.55,23.55,10.54,23.55,23.55,23.55Z"/>
    <path d="M548.39,289.67c13,0,23.55-10.54,23.55-23.55s-10.54-23.55-23.55-23.55-23.55,10.54-23.55,23.55,10.54,23.55,23.55,23.55Z"/>
  </g>
</svg>

