<svg xmlns="http://www.w3.org/2000/svg" fill="none" viewBox="0 0 138 25">
  <g fill="#2563EB">
    <path d="M11.611 14.7c3.07-1.14 4.83-3.545 4.83-6.6 0-4.52-3.302-7.327-8.616-7.327H0v23.125h4.72v-8.605h1.699l5.929 8.605h5.592l-6.58-9.096.251-.101Zm-3.752-3.17H4.72V4.904h3.14c2.305 0 3.795 1.294 3.795 3.297S10.127 11.53 7.86 11.53ZM27.341 4.938h9.253V.773H22.587v23.125h14.076v-4.165h-9.322V4.938ZM43.144.773v23.125h4.616V7.935l11.337 15.963h4.856V.773h-4.617V16.81L48.102.773h-4.958ZM81.113.336c-6.841 0-12.41 5.383-12.41 12s5.569 12 12.41 12 12.41-5.383 12.41-12-5.567-12-12.41-12Zm0 19.499c-4.214 0-7.516-3.294-7.516-7.5 0-4.204 3.302-7.498 7.516-7.498s7.517 3.294 7.517 7.499-3.301 7.499-7.517 7.499ZM108.301 10.576l-3.14-1.177c-1.143-.417-2.477-1.082-2.477-2.503 0-1.346 1.19-2.288 2.896-2.288 1.613 0 3.019.996 3.887 2.742l3.945-2.217c-1.459-2.967-4.489-4.797-7.935-4.797-4.525 0-7.687 2.82-7.687 6.856 0 3.058 1.84 5.196 5.62 6.533l2.897 1.01c1.835.644 2.654 1.482 2.654 2.713 0 1.514-1.362 2.557-3.312 2.557-2.037 0-3.841-1.252-4.757-3.282l-4.08 2.128c1.475 3.44 4.739 5.487 8.768 5.487 4.128 0 8.308-2.483 8.308-7.233 0-3.058-1.775-5.134-5.587-6.529ZM132.67.773l-5.462 8.796-5.461-8.796h-5.434l8.449 13.05v10.075h4.789V13.823l.033-.05 8.416-13h-5.33Z"></path>
    <path d="M31.32 15.138c.564 0 1.117-.163 1.587-.47.47-.306.836-.74 1.052-1.25.216-.51.272-1.07.162-1.61a2.766 2.766 0 0 0-.783-1.426 2.88 2.88 0 0 0-1.464-.762 2.925 2.925 0 0 0-1.65.16 2.842 2.842 0 0 0-1.282 1.028c-.313.458-.48.997-.48 1.548.003.738.305 1.445.84 1.966a2.9 2.9 0 0 0 2.017.816Z"></path>
  </g>
</svg>
