<svg width="381" height="512" viewBox="0 0 381 512" fill="none" xmlns="http://www.w3.org/2000/svg">
<path d="M368.408 203.817C363.989 197.894 363.989 188.191 368.408 182.26L378.037 169.302C382.448 163.372 381.002 155.203 374.835 151.14L361.344 142.244C355.176 138.196 351.863 129.072 353.976 121.992L358.594 106.521C360.706 99.442 356.563 92.259 349.373 90.561L333.665 86.81C326.482 85.105 320.247 77.677 319.803 70.309L318.854 54.171C318.417 46.811 312.064 41.473 304.733 42.311L288.684 44.171C281.345 45.031 272.947 40.183 270.019 33.408L263.614 18.582C260.679 11.807 252.873 8.96101 246.275 12.274L231.835 19.501C225.237 22.822 215.683 21.132 210.612 15.765L199.514 4.02501C194.443 -1.34199 186.14 -1.34199 181.078 4.02501L169.974 15.767C164.911 21.134 155.356 22.824 148.758 19.503L134.318 12.276C127.713 8.96301 119.914 11.809 116.986 18.584L110.574 33.41C107.646 40.185 99.2467 45.033 91.9077 44.173L75.8657 42.313C68.5267 41.476 62.1667 46.813 61.7217 54.173L60.7877 70.311C60.3507 77.679 54.1157 85.107 46.9257 86.812L31.2107 90.563C24.0197 92.26 19.8837 99.443 21.9887 106.523L26.6147 121.994C28.7207 129.073 25.4137 138.198 19.2387 142.246L5.7547 151.142C-0.412302 155.204 -1.85131 163.374 2.55269 169.304L12.1887 182.262C16.5927 188.192 16.5927 197.896 12.1887 203.819L2.55269 216.777C-1.85131 222.715 -0.412302 230.876 5.7547 234.939L19.2387 243.841C25.4137 247.896 28.7207 257.014 26.6147 264.093L21.9887 279.564C19.8837 286.636 24.0207 293.826 31.2107 295.539L46.9257 299.267C54.1157 300.98 60.3507 308.407 60.7877 315.783L61.7217 331.906C62.1667 339.274 68.5267 344.612 75.8657 343.774L91.9077 341.891C99.2467 341.046 107.645 345.901 110.566 352.677L116.985 367.503C119.913 374.285 127.712 377.124 134.317 373.803L148.757 366.576C155.355 363.269 164.91 364.945 169.973 370.319L181.077 382.061C186.139 387.428 194.442 387.428 199.513 382.061L210.61 370.319C215.681 364.945 225.235 363.269 231.833 366.576L246.273 373.803C252.871 377.124 260.677 374.285 263.604 367.503L270.017 352.677C272.945 345.901 281.343 341.047 288.682 341.891L304.731 343.774C312.062 344.611 318.415 339.274 318.852 331.906L319.801 315.783C320.246 308.407 326.48 300.98 333.663 299.267L349.371 295.539C356.561 293.827 360.705 286.636 358.592 279.564L353.974 264.093C351.862 257.014 355.175 247.896 361.342 243.841L374.833 234.939C381.001 230.877 382.447 222.715 378.035 216.777L368.408 203.817Z" fill="#4B4B4B"/>
<path d="M157.29 382.935C157.082 382.861 156.726 382.779 156.393 382.779L142.316 389.822C138.054 391.956 133.28 393.098 128.536 393.098C116.386 393.098 105.393 385.834 100.552 374.596L94.1317 359.786C94.1617 359.867 94.1317 359.897 94.0717 359.897C93.9687 359.897 93.7237 359.801 93.5317 359.719L84.8807 360.735L20.3887 458.777L85.7927 447.465L101.293 512.002L175.133 399.741C172.56 398.274 170.129 396.539 168.068 394.359L157.29 382.935Z" fill="#4B4B4B"/>
<path d="M287.089 359.717C286.822 359.82 286.473 360.005 286.274 360.191L280.04 374.609C275.199 385.832 264.213 393.096 252.049 393.096C247.312 393.096 242.531 391.954 238.254 389.805L224.228 382.785C223.798 382.808 223.487 382.881 223.294 382.934L212.53 394.356C210.084 396.936 207.164 398.938 204.05 400.531L277.363 512L292.863 447.463L358.267 458.775L293.613 360.48L287.089 359.717Z" fill="#4B4B4B"/>
</svg>
