<svg viewBox="0 0 477 116" fill="none" xmlns="http://www.w3.org/2000/svg">
<path d="M133.975 98.7568C134.205 101.917 131.825 104.667 128.665 104.897C125.505 105.127 122.755 102.747 122.525 99.5868C122.295 96.4268 124.675 93.6768 127.835 93.4468C130.985 93.2268 133.735 95.5968 133.975 98.7568Z" fill="black"/>
<path d="M64.1353 5.31673C64.3653 8.46673 61.9853 11.2267 58.8253 11.4567C55.6653 11.6867 52.9153 9.30673 52.6853 6.15673C52.4553 2.98673 54.8253 0.246732 57.9953 0.016732C61.1553 -0.223268 63.9053 2.14673 64.1353 5.31673Z" fill="black"/>
<path d="M11.4654 109.807C11.6954 112.967 9.31542 115.717 6.15542 115.947C2.98542 116.177 0.245419 113.797 0.0154191 110.637C-0.214581 107.487 2.15542 104.737 5.32542 104.497C8.48542 104.277 11.2354 106.647 11.4654 109.807Z" fill="black"/>
<path d="M56.4154 15.0869C56.6854 15.1269 11.5554 104.227 11.6554 104.137C11.7154 104.077 60.8154 69.3969 60.8154 69.3969L56.4154 15.0869Z" fill="url(#paint0_linear_74_4602)"/>
<path d="M61.2051 14.0269L65.6451 68.7369L121.925 93.0069L61.2051 14.0269Z" fill="url(#paint1_linear_74_4602)"/>
<path d="M63.5357 72.9165L14.3857 106.757L118.656 96.2265L63.5357 72.9165Z" fill="black"/>
<path d="M226.236 41.1069C223.616 41.1069 220.466 41.6469 217.706 43.1969C214.946 44.7169 213.516 46.6269 212.486 48.4369C210.916 51.1769 210.136 54.4169 210.136 58.1569C210.136 63.0769 211.526 66.9569 214.286 69.8269C217.066 72.7069 220.716 74.1269 225.226 74.1269C227.296 74.1269 229.316 73.8569 231.286 73.3169C233.236 72.7769 237.496 67.5669 237.496 67.5669C235.986 68.6069 234.466 69.3769 232.926 69.8869C231.406 70.4169 229.866 70.6769 228.306 70.6769C224.846 70.6769 222.046 69.5369 219.926 67.2469C217.786 64.9769 216.676 61.6269 216.556 57.2169H224.896C229.096 57.2169 232.416 57.1369 234.786 56.9369C236.106 56.8269 237.516 56.5869 238.976 56.2069L239.086 54.2469C239.086 50.1069 237.926 46.8769 235.616 44.5869C233.306 42.2669 230.166 41.1069 226.236 41.1069ZM234.056 54.6369C231.306 54.7869 220.096 54.8069 216.666 54.6569C216.706 50.8169 218.206 43.4169 225.866 43.4169C233.536 43.4169 233.706 50.6069 234.056 52.7769V54.6369Z" fill="black"/>
<path d="M339.095 42.7869L340.355 28.5469C337.675 31.4869 333.285 33.2069 333.525 33.2669C334.925 35.2569 335.815 42.7869 335.945 42.7869H339.095Z" fill="black"/>
<path d="M284.665 70.777C284.315 70.567 284.085 70.067 283.995 69.297C283.745 67.177 283.635 64.597 283.635 61.497C283.635 61.497 284.105 41.017 283.435 40.647C281.075 42.237 271.365 44.897 271.365 44.897C271.365 44.897 277.095 45.877 277.375 46.477C277.805 47.417 278.025 50.557 278.025 55.927C278.025 60.327 277.945 64.127 277.795 67.327C277.705 69.137 277.515 70.227 277.205 70.567C276.905 70.897 276.175 71.107 275.035 71.197L271.075 71.457C271.075 71.457 271.685 73.207 280.675 73.207C289.665 73.207 291.025 71.337 291.025 71.337L288.435 71.467C286.775 71.467 285.525 71.237 284.665 70.777Z" fill="black"/>
<path d="M170.295 41.8166C170.295 41.8166 174.115 44.2266 174.395 44.4166C174.685 44.6166 174.825 44.9266 174.825 45.3466C174.825 45.5966 166.015 65.5966 165.775 65.0166C161.235 53.8166 158.785 48.5766 158.405 47.4766C158.005 46.3166 157.805 45.5566 157.805 45.1866C157.805 44.7266 157.995 44.3966 158.375 44.1666C158.935 43.8866 162.725 41.8066 162.725 41.8066C159.925 41.9466 157.335 42.0066 154.985 42.0066C152.785 42.0066 150.035 41.9566 146.735 41.8066C146.735 41.8066 149.585 44.0066 150.205 44.5266C150.815 45.0566 152.295 46.4266 152.795 47.8866C153.045 48.5966 153.765 49.7066 154.905 52.2566C157.955 59.1566 163.005 69.8466 165.565 73.7366C169.205 69.9366 179.545 44.9066 179.775 44.6566C179.995 44.4066 180.285 44.2066 180.635 44.0566C181.125 43.8466 183.175 41.8266 183.175 41.8266C180.785 41.9666 178.545 42.0266 176.435 42.0266C174.635 42.0166 172.585 41.9666 170.295 41.8166Z" fill="black"/>
<path d="M471.095 69.8867C469.065 67.2167 464.725 60.9467 461.715 56.5067C466.915 50.0367 470.315 46.4467 471.525 45.3867C472.255 44.7567 475.265 41.8167 475.265 41.8167C475.265 41.8667 469.445 41.7667 469.525 41.8167C466.505 46.2367 463.155 50.7767 460.265 54.6267C456.975 49.1567 451.195 41.7467 449.745 41.0967C450.065 41.0967 442.795 41.0967 442.795 41.0967C442.795 41.0967 446.025 43.5367 447.315 44.8167C448.605 46.1067 454.755 55.0067 457.085 58.5267C454.455 61.8867 451.835 64.9967 449.255 67.8767C447.475 69.8667 444.545 72.4867 443.665 73.3967C443.705 73.5267 449.415 73.3067 449.485 73.3967C451.235 70.5967 452.665 68.3967 453.795 66.8167C454.915 65.2367 456.535 63.1567 458.625 60.6067C463.055 67.3067 465.515 70.9667 466.005 71.5867C466.785 72.5767 467.745 73.4867 468.885 74.3067C468.835 74.2467 476.755 74.2467 476.755 74.2467C475.595 74.2567 472.485 71.7067 471.095 69.8867Z" fill="black"/>
<path d="M285.485 49.117C285.565 49.117 285.485 51.637 285.485 51.637C287.405 48.457 293.145 46.057 297.005 49.347C296.555 44.937 297.445 41.177 297.465 41.187C294.205 42.917 285.895 47.707 285.485 49.117Z" fill="black"/>
<path d="M397.606 41.1069C394.996 41.1069 391.846 41.6469 389.076 43.1969C386.316 44.7169 384.886 46.6269 383.866 48.4369C382.296 51.1769 381.516 54.4169 381.516 58.1569C381.516 63.0769 382.906 66.9569 385.676 69.8269C388.446 72.7069 392.096 74.1269 396.616 74.1269C398.676 74.1269 400.706 73.8569 402.656 73.3169C404.616 72.7769 408.866 67.5669 408.866 67.5669C407.356 68.6069 405.836 69.3769 404.296 69.8869C402.766 70.4169 401.226 70.6769 399.666 70.6769C396.206 70.6769 393.406 69.5369 391.286 67.2469C389.146 64.9769 388.036 61.6269 387.916 57.2169H396.246C400.466 57.2169 403.766 57.1369 406.146 56.9369C407.476 56.8269 408.876 56.5869 410.336 56.2069L410.436 54.2469C410.436 50.1069 409.286 46.8769 406.976 44.5869C404.676 42.2669 401.556 41.1069 397.606 41.1069ZM405.426 54.6369C402.676 54.7869 391.476 54.8069 388.026 54.6569C388.076 50.8169 389.586 43.4169 397.236 43.4169C404.886 43.4169 405.076 50.6069 405.426 52.7769V54.6369Z" fill="black"/>
<path d="M325.985 42.8569C326.715 44.0569 328.955 47.6169 328.955 47.6169C330.775 47.4869 332.535 47.4169 334.255 47.4169V60.1469L334.145 66.6169C334.145 68.5469 334.405 69.9769 334.915 70.9269C335.425 71.8769 336.245 72.6469 337.365 73.2269C338.505 73.8269 339.875 74.1169 341.515 74.1169C342.135 74.1169 343.115 74.0169 343.895 73.9169C346.825 73.0069 348.055 69.0669 348.055 69.0669C347.465 69.5869 346.705 69.6369 345.925 69.7469C345.135 69.8569 344.715 69.9369 344.085 69.9369C343.045 69.9369 342.195 69.6669 341.515 69.1369C340.835 68.5869 340.395 67.8369 340.175 66.8669C339.955 65.9169 339.835 63.7169 339.835 60.2769V47.1169H340.995L347.345 47.0769L348.695 47.1169L349.255 43.0869C349.255 43.0869 341.605 43.7969 337.375 43.7969C333.145 43.7969 327.565 43.4569 325.985 42.8569Z" fill="black"/>
<defs>
<linearGradient id="paint0_linear_74_4602" x1="55.6933" y1="44.7844" x2="15.3071" y2="79.9028" gradientUnits="userSpaceOnUse">
<stop stop-color="#D7000F"/>
<stop offset="1" stop-color="#F18D02"/>
</linearGradient>
<linearGradient id="paint1_linear_74_4602" x1="109.838" y1="93.986" x2="57.1635" y2="34.2885" gradientUnits="userSpaceOnUse">
<stop offset="0.005618" stop-color="#D45315"/>
<stop offset="1" stop-color="#FFD900"/>
</linearGradient>
</defs>
</svg>
