<?xml version="1.0" encoding="UTF-8"?>
<svg xmlns="http://www.w3.org/2000/svg" xmlns:xlink="http://www.w3.org/1999/xlink" version="1.1" viewBox="0 0 550 550">
  <!-- Generator: Adobe Illustrator 30.2.1, SVG Export Plug-In . SVG Version: 2.1.1 Build 1)  -->
  <defs>
    <style>
      .st0 {
        fill: none;
      }

      .st1 {
        fill: #323232;
      }

      .st2 {
        fill: url(#_新規パターン);
      }

      .st3 {
        fill: #fff;
      }

      .st4 {
        fill: #82d2b4;
      }
    </style>
    <pattern id="_新規パターン" data-name="新規パターン" x="0" y="0" width="4.98" height="5.18" patternTransform="translate(11701.5 -5676.79) rotate(-45) scale(1.93)" patternUnits="userSpaceOnUse" viewBox="0 0 4.98 5.18">
      <g>
        <rect class="st0" x="0" y="0" width="4.98" height="5.18"/>
        <rect class="st3" x="0" y="0" width="4.98" height="5.18"/>
        <circle class="st4" cx="2.49" cy="2.59" r="1.06"/>
      </g>
    </pattern>
  </defs>
  <path class="st3" d="M270.76,463.7c3.22,2.72,6.43,5.45,9.65,8.17.39-.04.81-.02,1.26.11,4.14,1.15,8.21,2.68,12.59,2.53,1.44-.05,7.74-.52,5.26-3.92-1.11-1.52-5.25-1.22-6.97-1.48-9.62-1.45-15.84-8.29-24.07-12.57-4.22-2.19-8.69-.35-13.06.44-4.11.74-8.13,1.15-12.31.9-.91-.05-1.83-.15-2.75-.24-4.34-.41-8.69-1.17-12.91-2.24-6.95,12.3-13.42,24.86-20.21,37.24,8.13,5.67,13.97,14.45,21.77,20.59,5.36,4.21,11.85,6.71,17.84,9.86,2.53,1.33,5.9,4.28,8.81,4.37,5.35.17,3.01-4.52.41-6.4-3.4-2.45-.48-7.75,3.33-5.7,3.01,1.62,9.41,4.81,11.51.24,1.25-2.71-3.48-5.74-5.13-7.02-3.29-2.52-.19-8.19,3.33-5.7,2.87,2.03,7.96,5.63,10.7,1.7,2.52-3.62-2.5-6.98-5-9.29-2.78-2.57.83-7.11,4-5.18,2.94,1.79,8.48,6.21,11.96,6.18,2.01-.02,4.02-2.07,3.41-4.12-.43-1.42-3.37-3.19-4.46-4.08-2.32-1.88-4.69-3.69-6.97-5.62-5.22-4.41-10.43-8.84-15.65-13.26-.34-.29-.69-.58-1.03-.87-3.25-2.75,1.44-7.4,4.67-4.67Z"/>
  <path class="st4" d="M248.9,239.5c.4.03.32-.24.07-.32-.13.1-.24.22-.35.35.1-.02.19-.03.28-.02Z"/>
  <path class="st4" d="M247.86,241.63c0-.89.3-1.58.76-2.1-.13.02-.27.06-.42.1-.19.37-.34.98-.34,2Z"/>
  <path class="st3" d="M230.22,209.58c-18.01-11.98-38.47-20.09-55.97-32.86-1.21,2.15-2.42,4.3-3.63,6.45-.23.4-.5.71-.8.95,12.34,14.14,23.69,29.34,33.7,45.39,6.83-7.24,14.58-13.73,22.81-19.31,1.21-.82,2.4-.67,3.29-.04.19-.21.39-.41.6-.58Z"/>
  <path class="st4" d="M242.03,212.07c-.89-.64-1.32-1.49-1.42-2.37-.74.44-1.49.86-2.29,1.24-1.43.69-2.79.31-3.74-.51-.88.59-2.04.71-3.22-.09-.38-.26-.77-.5-1.15-.76-.21.18-.41.37-.6.58,1.7,1.2,2.33,4.19.04,5.74-.87.59-1.73,1.2-2.58,1.81.25.3.46.66.61,1.09,2.37,6.99,5.76,13.61,10,19.65.33.48.5.95.56,1.4,1.52.38,3.95.32,5.51.28,1.24-.03,2.51-.09,3.74-.31.21-.04.45-.12.7-.2.24-.46.56-.52.77-.45.18-.15.39-.27.6-.37.85-2.26.82-5.61.99-7.55.28-3.22.4-6.46.57-9.69-2.66-3.6-5.53-6.96-9.1-9.5Z"/>
  <path class="st3" d="M235.47,153.3c-4.93-.37-9.86-.73-14.79-1.1,1.89,1.47,3.92,2.65,6.05,3.18,2.85.71,5.92-.39,8.74-2.08Z"/>
  <path class="st3" d="M180.11,128.77c.52.52.9,1.22.98,2.12,2.08,24.72,18.01,54.33,46.71,52.95,12.73-.61,23.35-9.1,29.79-19.66,5.3-8.69,7.64-18.57,9.03-28.58-.18-.72-.06-1.44.28-2.08.48-3.77.85-7.54,1.22-11.26.41-4.2,7.01-4.22,6.6,0-.24,2.44-.48,4.89-.76,7.35,2.54-2.56,4.15-6.45,4.82-9.47.43-1.92,2.34-14.23-1.19-14.98-.28,1.36-1.31,2.53-3.1,2.51-2.01-.02-4.02-.05-6.02-.07-1.73,8.25-9.09,14.43-18.06,13.26-9.14-1.19-14.69-9.27-14.05-17.86-1.98-.41-4.03-.55-6.06-.59-2.26,9.57-9.61,17.16-20.28,16.44-11.01-.74-17.27-9.35-17.95-19.45-3.52-.07-7.05-.13-10.57-.2-.77-.01-1.4-.25-1.89-.61-1.92.53-4.3-.47-4.26-3.04,0-.15.02-.3.02-.45-.69,1.05-1.91,1.73-3.48,1.33-6.84-1.72-5.98,10.78-5.51,14.63.5,4.07,3.45,17.16,9.75,15.19,2.16-.67,3.65.81,3.98,2.54ZM228.86,127.63c1.47.19,2.95.38,4.42.58,1.84.24,3.21,1.32,3.3,3.3.07,1.62-1.58,3.52-3.3,3.3-1.47-.19-2.95-.38-4.42-.58-1.84-.24-3.21-1.32-3.3-3.3-.07-1.62,1.58-3.52,3.3-3.3ZM211.36,144.98c.57-.17,1.19-.17,1.78.07,10.4.77,20.8,1.54,31.2,2.31,2.64.2,4.64,3.59,2.33,5.63-5.1,4.53-12.34,9.97-19.54,9.18-6.85-.75-13.14-6.57-17.47-11.57-.67-.78-.9-1.65-.83-2.47-.04-1.51.8-2.97,2.52-3.15Z"/>
  <path class="st3" d="M247.2,184.17c-5.77,3.67-12.32,5.98-19.41,6.27-22.23.9-37.86-14.01-46.29-32.59-.21,5.19-.43,10.37-.64,15.56,16.99,11.87,36.7,19.6,53.84,31.23.21.14.39.3.55.46,5.1-2.53,8.66-6.47,11.99-10.84-.01-.13-.04-.26-.04-.4v-9.69Z"/>
  <path class="st3" d="M384.58,204.19c-.6,3.29-1.63,6.62-2.64,9.61,3.09-.59,2.54-6.61,2.64-9.61Z"/>
  <path class="st3" d="M396.39,191.06c-1.14-.76-2.77-.84-4.22-.76.01,3.14-.43,6.38-.66,9.37-.3,3.94-.1,8.14-.77,12.02-.18,1.05-.47,2.03-.84,2.94.84,1.98,2.36,2.43,4.56,1.3,1.06-1.11,1.65-2.41,1.79-3.88.02-.11.06-.2.09-.3.65-4.58,1.31-9.17,1.58-13.78.14-2.4.72-5.42-1.53-6.91Z"/>
  <path class="st3" d="M364.93,191.4c-.19-.41-.31-.88-.31-1.43,0-9.99-.16-19.99-.54-29.98-.1-2.62.42-21.15-4.22-20.2-2.51.52-1.69,9.87-1.72,11.46-.11,4.88-.23,9.76-.31,14.63-.19,10.35.45,20.86-.21,31.19-.32,5.04-1.38,10-1.74,15.03-.19,2.78-.03,5.37.4,7.92.08-.35.2-.7.42-1.06,4.89-7.97,8.34-16.39,12.37-24.78.05-.11.11-.21.16-.32-1.73.57-3.83-.65-4.31-2.48Z"/>
  <path class="st3" d="M378.42,183.26c-2.74.67-4.53,3.43-5.94,6.1,2.27-2.03,5.15-2.58,8.57.03,2.82,2.16,3.91,5.37,4.03,8.98.28-2.86.53-5.74.36-8.56-.24-3.97-2.27-7.71-7.02-6.54Z"/>
  <path class="st2" d="M174.57,417.71c-7.91-4.75-15.82-9.64-23.22-15.16-2.82-2.1-5.85-4.25-7.98-7.08-2.6-3.45-2.83-11.69-7.74-11.99-4.23-.25-4.24-6.86,0-6.6,6.06.36,8.77,3.51,10.59,9.02,1.76,5.35,4.47,7.99,8.92,11.28,1.95,1.44,3.93,2.82,5.93,4.18l2.16-3.32c-1.15-.9-1.73-2.45-.7-4.05.39-.6.79-1.2,1.17-1.82,17.24-27.79,35.51-54.99,53.26-82.46,4.38-6.79,8.65-13.69,13.04-20.5-1.66.79-4.09.38-4.93-1.86-13.55-36.04-34.81-69.87-60.15-98.85-2.89,4.87-6.24,9.45-9.17,14.29-.44.73-.88,1.79-1.16,2.02.46,1.54.76,3.16,1.14,4.72,1.78,7.35,3.56,14.71,5.34,22.06,1,4.13-5.36,5.88-6.36,1.75-1.92-7.91-3.83-15.83-5.75-23.74-.75-3.11-1.39-4.88-.34-7.48-5.22,2.26-10.47,4.46-15.74,6.59-11.22,4.54-22.86,9.52-34.82,11.68-2.27.41-3.82-1.3-4.09-3.05-.34.11-.69.22-1.03.35,1.43,1.37,1.78,3.98-.41,5.31-13.7,8.28-13.21,27.93-15.12,41.99-2.65,19.45-4.38,39.02-5.6,58.61-1.06,16.99-1.74,33.99-2.3,51-.31,9.29-.59,18.59-.88,27.89-.11,3.53-.64,7.44.12,10.91.64,2.94,2.5,5.25,4.34,7.54,3.95,4.92,8.41,7.9,13.54,11.34,6.49,4.35,12.97,8.71,19.45,13.07,16.14,10.85,32.28,21.7,48.52,32.41,11.17,7.37,22.3,15.46,34.2,21.64-.24-.6-.28-1.31.05-2.13,7.3-18.5,18-35.92,28.77-52.65l-12.66-7.95c-10.11-6.35-20.15-12.84-30.39-18.99ZM158.27,238.18c1.42-2.19,3.92-3.59,6.02-5.07,5.54-3.9,11.07-7.79,16.61-11.69,3.48-2.45,6.78,3.27,3.33,5.7-4.78,3.37-9.56,6.73-14.35,10.1-1.49,1.05-4.59,2.41-5.61,3.95-2.12,3.17,4.2,8.15,6.32,10.45,14.38,15.61,29.44,30.63,43.32,46.7,2.77,3.2-1.89,7.89-4.67,4.67-15.66-18.13-33.05-34.7-48.8-52.74-3.03-3.48-4.97-7.71-2.17-12.05ZM144.57,275.74c-.21,4.11-.41,8.22-.62,12.33-1.41,28.11-2.81,56.21-4.22,84.32-.21,4.23-6.81,4.25-6.6,0,.21-4.11.41-8.22.62-12.33,1.41-28.11,2.81-56.21,4.22-84.32.21-4.23,6.81-4.25,6.6,0ZM103.48,227.05c11.5,7.17,21.66,16.06,30.22,26.57,2.66,3.27-1.98,7.96-4.67,4.67-8.22-10.09-17.84-18.65-28.89-25.54-3.6-2.25-.28-7.95,3.33-5.7ZM131.1,390.69c-7.15,2.9-12.84,8.21-16.54,14.94-2.05,3.73-7.75.39-5.7-3.33,4.22-7.66,10.62-13.4,18.44-17.05-.31.09-.64.16-1.01.16-8.98-.02-18.66,1.68-26.39,6.38-3.64,2.22-6.95-3.49-3.33-5.7,8.7-5.3,19.61-7.3,29.72-7.28,3.55,0,4.12,4.59,1.75,6.11.44-.19.86-.41,1.31-.59,3.94-1.6,5.64,4.79,1.75,6.36Z"/>
  <path class="st4" d="M356.81,365.53c-8.97-7.74-19.3-14.31-28.84-21.34-1.84,2.48-4.13,4.42-6.99,3.95-.58.02-1.2-.15-1.82-.6-9.58-6.85-19.16-13.7-28.74-20.55-3.85-2.75-7.95-5.33-11.63-8.31-4.26-3.47-3.22-6.81-.59-10.92.05-.08.11-.18.16-.26-10.16-7.52-20.31-15.03-30.47-22.55-.66-.49-4.09-3.71-4.82-3.52-1.43.37-4.24,6.57-5.01,7.75-8.53,13.21-17.06,26.42-25.59,39.63-14.75,22.85-29.51,45.69-44.26,68.54-1.27,1.97-3.58,1.83-5,.72l-2.16,3.32c8.75,5.94,17.94,11.23,26.89,16.86,11.97,7.52,23.94,15.04,35.91,22.56,1.14.72,1.82,2.14,1.58,3.46,1.15.69,2.3,1.38,3.45,2.07,1.08.65,1.65,1.84,1.6,3.03,8.74,2.03,17.36,2.46,26.27.66,4.68-.95,9.03-1.97,13.59.1,5.7,2.59,10.31,7.25,15.95,10.06,1.45.72,3.78,1.26,6.38,1.86.1-.15.21-.29.31-.44,17.58-26.69,36.3-52.71,54.43-79.03,3.05-4.43,6.1-8.86,9.15-13.29,1.44-2.1,2.13-2.1.26-3.72Z"/>
  <path class="st4" d="M171.56,69.66c-.07,6.66-.22,13.4.25,20.06.59.07,1.19.17,1.83.33,1.08.27,1.75.91,2.09,1.69,1.26-7.19,5.63-14.68,12.08-17.8,1.84-.89,3.56-.02,4.43,1.32,1.34-1.29,2.7-2.54,4.1-3.69-4.36.79-8.91.77-13.52-.08-4.18-.78-2.4-7.13,1.75-6.36,8.22,1.53,16.97-.38,23.44-5.81,5-4.2,8.63-9.95,14.42-13.22,10.13-5.73,22.65-1.96,30.41,5.93,1.25,1.27,1.15,2.83.39,3.99,1.41.72,2.82,1.49,4.15,2.39.33-2.5,3.42-4.48,5.46-2.06,7.01,8.29,11.41,17.96,13.08,28.24,1.91-8,2.34-16.4,1.04-24.45-1.21-7.46-6.25-18.75-14.42-20.68.2.38.4.78.56,1.19-.17-.42-.36-.81-.56-1.19-.72-.17-1.47-.28-2.24-.29-2.8-.05-3.75-2.94-2.85-4.88-1.33-.83-2.78-1.54-4.29-2.19-.29,2.45-3.4,4.42-5.55,2.11-9.69-10.45-29.3-12.25-42.24-8.26-14.67,4.52-29.45,18.33-32.69,33.62-.57,2.68-3.41,2.89-5.12,1.59-.55,1.84-.86,3.78-1.03,5.78,1.96-1.06,5.03-.15,5,2.76Z"/>
  <path class="st4" d="M190.35,501.27c.11-.08.21-.15.32-.23-.15-.05-.3-.08-.44-.15.05.12.09.25.13.38Z"/>
  <path class="st3" d="M194.95,501.1c9.68-16.69,18.25-34,27.81-50.76-.23-.14-.46-.28-.7-.42-10.05,15.63-20.07,31.92-26.86,49.14-.59,1.5-1.9,2.16-3.2,2.19.6,1.01,1.5,1.45,2.49,1.78-.06-.61.06-1.27.45-1.94Z"/>
  <path class="st3" d="M191.14,79.63c-4.67,2.26-7.91,7.71-8.89,12.96,4.35.08,8.71.17,13.06.25,1.72.03,3.39,1.49,3.3,3.3-.38,7.79,2.82,15.23,11.4,16.09,7.73.78,13.23-5.27,14.19-12.52.05-.36.15-.68.28-.97.15-1.52,1.2-2.93,3.16-2.95,4.37-.04,9.16.1,13.29,1.64,1.69.63,2.78,2.22,2.3,4.06-3.81,14.66,19,17.55,19.01,2.39,0-2.76,2.78-3.72,4.73-2.89.92.01,1.84.02,2.76.03,0-.12,0-.24.01-.36,1.97-14.24-2.31-28.7-11.57-39.66-.7-.83-.91-1.75-.8-2.61-1.33-.9-2.74-1.67-4.15-2.39-1.04,1.6-3.33,2.44-5.06.68-4.61-4.68-11.16-7.72-17.85-6.54-6.63,1.17-10.7,7.04-15.17,11.5-5.34,5.32-11.82,8.66-18.82,9.93-1.41,1.15-2.77,2.4-4.1,3.69.93,1.44.88,3.42-1.1,4.38ZM249.88,107.96c-4.25,0-4.25-6.6,0-6.6s4.25,6.6,0,6.6ZM245.28,89c5.79-1.75,13.98-1.32,18.18,3.62,2.74,3.22-1.91,7.91-4.67,4.67-2.71-3.19-8.09-3.03-11.76-1.92-4.08,1.23-5.81-5.14-1.75-6.36ZM211.74,104.94c-4.25,0-4.25-6.6,0-6.6s4.25,6.6,0,6.6ZM201.19,85.45c6.31-1.92,13.53-1.5,19.64.8,3.95,1.48,2.23,7.86-1.75,6.36-5.1-1.92-10.87-2.4-16.14-.8-4.08,1.24-5.81-5.13-1.75-6.36Z"/>
  <path class="st3" d="M245.23,206.29s.09.04.13.08c8.31,5.92,13.01,15.28,19.46,22.97-2.47-9.86-5.48-19.72-10.15-28.63-.73-1.4-.4-2.74.4-3.68-.27-.43-.53-.85-.74-1.28-2.81,3.8-5.65,7.49-9.11,10.54Z"/>
  <path class="st2" d="M387.39,311.78c-6.47.24-11.54-2.85-16.37-6.75-5.9-4.76-11.34-10.22-16.15-16.08-1.55-1.88-3.18-3.87-4.62-5.97-3.59,12.15-7.24,24.29-11.27,36.3-1.35,4.01-7.72,2.28-6.36-1.75,2.7-8.06,5.23-16.17,7.69-24.31-.6-2.25-1.2-4.5-1.8-6.72-1.81.38-4.17-.64-4.48-3.05.17,1.31-.06-.42-.12-.83-.18-1.27-.36-2.53-.55-3.8-.54-3.61-1.13-7.2-1.76-10.8-1.56-8.86-3.22-17.86-6.09-26.41-1.19-3.55-2.44-6.52-5.45-8.89-4.42-3.47-9.94-5.98-15.2-7.86-7.44-2.65-13.92-6.69-20.25-11.4-1.18-.87-1.53-2.14-1.36-3.31-1.73-1.23-3.33-2.63-5.02-3.88,4.39,8.26,8.79,16.51,13.18,24.77,2,3.75-3.7,7.08-5.7,3.33-4.55-8.55-9.1-17.1-13.65-25.66-.98-1.84-2-3.66-2.94-5.52-.32-.64-.4-.87-.4-.95-.05.02-.22-.03-.77-.47-4.08-3.25-8.05-6.64-12.18-9.84.27.76.19,1.65-.47,2.55-.31.42-.62.84-.93,1.26.21.43.47.85.74,1.28,1.36-1.58,4.06-2.01,5.29.35,6.55,12.51,10.09,26.68,13.21,40.36,3.98,17.46,6.78,35.21,8.5,53.04.24,2.49-1.94,3.49-3.86,3.05l.26,5.58c1.2.89,2.39,1.77,3.59,2.66,1.8-1.95,4.04-3.02,7.16-1.37,3.29,1.74,6.34,4.53,9.36,6.69,10,7.15,20.04,14.24,29.99,21.45,3.3,2.39,5.15,5.18,2.98,9.27-.07.13-.15.28-.22.42,3.8,2.81,7.59,5.62,11.39,8.43,4.87,3.6,9.73,7.2,14.6,10.8,2.51,1.86,6.04,3.78,7.04,6.88,1.37,4.23-1.88,7.62-4.09,10.83-3.9,5.66-7.79,11.31-11.69,16.97-6.6,9.58-13.19,19.16-19.79,28.74,1.06.37,2.08.69,3.16.89-1.06-2.39,1.71-5.82,4.76-4.26,9.39,4.81,22.59,1.05,28.27-7.6,6.39-9.72,8.36-22.63,11.67-33.62,6.81-22.61,14.18-45.05,20.85-67.71-3.04,1.72-6.46,2.77-10.12,2.91ZM298.99,258.37c-1.28,12.22-2.56,24.44-3.85,36.67-.44,4.19-7.04,4.22-6.6,0,1.12-10.64,2.23-21.29,3.35-31.93.41-3.96,2.18-9.8,1.44-13.75-.88-4.7-12.69-7.67-16.74-9.37-3.87-1.62-2.16-8,1.75-6.36,6.16,2.58,16.94,5.02,20.4,11.17,2.24,3.98.69,9.33.25,13.57ZM319.57,310.47c.6,4.16-5.76,5.94-6.36,1.75-2.71-18.76,4.96-36.61,4.3-55.36-.15-4.26,6.45-4.24,6.6,0,.63,18.05-7.13,35.65-4.54,53.61Z"/>
  <path class="st3" d="M229.01,269.46c.11-8.38,1.2-16.43,3.56-24.48.09-.31.22-.57.36-.81-.34-.54-.45-1.16-.38-1.77-.2-.18-.39-.38-.55-.62-4.32-6.16-7.73-12.95-10.25-20.05-5.23,4.16-10.17,8.71-14.67,13.62,8.66,14.52,16.21,29.68,22.41,45.29.31-2.83.77-5.61,1.39-8.27-1.07-.44-1.89-1.4-1.87-2.91Z"/>
  <path class="st4" d="M271.24,289.54c-1.65.63-3.82.14-4.53-2.02-4.6-14.02-10.22-28.27-16.99-41.42-1.28.29-2.6.41-3.66.51-2.24.2-4.72.31-7.1.02,0,.04,0,.07-.02.11-2.2,7.51-3.21,14.91-3.32,22.72-.04,2.74-2.79,3.7-4.73,2.91-.62,2.66-1.08,5.44-1.39,8.27.66,1.65,1.31,3.31,1.94,4.97.14.38.19.73.21,1.06,1.7-2.6,3.43-5.18,5.2-7.73,6.04-8.69,13.74-.2,19.53,4.09,5.67,4.2,11.35,8.4,17.02,12.6-.71-2.03-1.47-4.04-2.14-6.09Z"/>
  <path class="st3" d="M278.23,293.82c-1.35-.31-2.57-1.32-2.74-3.05-1.66-17.24-4.42-34.39-8.27-51.28-.36-1.56-.72-3.13-1.08-4.7-1.08,1.56-3.28,2.3-4.89.49-1.31-1.47-2.54-3.06-3.74-4.69-.19,4.13-.71,8.32-2.35,11.67,7.15,13.78,13.08,28.79,17.92,43.51.61,1.87-.42,3.23-1.83,3.77.68,2.05,1.44,4.05,2.14,6.09,1.7,1.26,3.4,2.52,5.1,3.78l-.26-5.58Z"/>
  <path class="st3" d="M392.48,283.35c2.54-7.65,5.03-15.31,7.73-22.9,1.76-4.94,4.63-9.16,7.34-13.62,5.11-8.41,2.4-16.05,1.65-25.2-.03-.32,0-.61.05-.88-3.12,1.79-7.12,1.53-9.86-.53-1.89,2.05-4.46,3.34-7.52,3-2.64-.29-5.07-1.52-6.68-3.4-.74.34-1.53.58-2.37.69,5.16,6.03,9.74,13.69,8.91,21.39-.45,4.18-7.06,4.22-6.6,0,.84-7.79-5.49-15.54-10.71-20.75-.81-.8-1.2-2.1-.85-3.21.88-2.75,1.71-5.52,2.49-8.3,1.02-3.66,3.2-9.1,2.12-12.91-1.42-5.01-3.2.36-4.08,2.37-1.16,2.63-2.28,5.27-3.48,7.88-2.45,5.27-5.15,10.38-8.19,15.33-1.47,2.39-4.44,1.75-5.66,0,.41,1.78.92,3.56,1.53,5.4,2.71,8.22,7.79,17.45,8.25,26.18.26,4.88-1.88,9.95-3.86,14.31-.44.97-1.12,1.48-1.87,1.65,2.98,6.15,8.59,11.58,13.33,15.89,3.02,2.75,6.27,5.44,10.04,7.11,5.2,2.31,8.28,1,11.34-3.3.11-.73.24-1.45.4-2.15-2.08.13-4.27-1.5-3.43-4.03Z"/>
  <path class="st3" d="M402.07,291.43c-.09.24-.21.48-.37.73-3.04,4.57-6.9,8.75-12.8,8.65-5.27-.09-10.37-3.16-14.44-6.25-8.64-6.55-19.25-16.67-21.71-27.69-.17-.78-.09-1.47.17-2.06-.18-.29-.39-.58-.68-.87-.46,2.31-1.69,4.23-2.73,6.17,1.32-.04,2.6.66,2.98,2.35,2.06,9.21,11.86,17.76,18.51,23.86,3.37,3.09,7.22,6.89,11.69,8.3,6.68,2.11,13.83-1.42,17.62-6.95.86-1.26,2.15-1.63,3.34-1.43.17-1.54.29-3.12.29-4.8h-1.86Z"/>
  <path class="st3" d="M404.8,194.7c.34,5.85-1.01,12.22-1.95,18.01-.14,1.82.36,3.38,2.58,2.71,2.12-.64,2.52-3.99,3.15-5.91,1.56-4.75,5.34-17.6-3.77-14.81Z"/>
  <path class="st1" d="M169.89,237.21c4.78-3.37,9.56-6.73,14.35-10.1,3.45-2.43.15-8.15-3.33-5.7-5.54,3.9-11.07,7.79-16.61,11.69-2.1,1.48-4.6,2.88-6.02,5.07-2.8,4.34-.86,8.58,2.17,12.05,15.75,18.05,33.14,34.61,48.8,52.74,2.78,3.22,7.43-1.47,4.67-4.67-13.88-16.07-28.94-31.09-43.32-46.7-2.11-2.29-8.43-7.28-6.32-10.45,1.03-1.54,4.13-2.9,5.61-3.95Z"/>
  <path class="st1" d="M298.74,244.8c-3.46-6.16-14.23-8.59-20.4-11.17-3.91-1.64-5.62,4.75-1.75,6.36,4.05,1.7,15.86,4.67,16.74,9.37.74,3.95-1.03,9.8-1.44,13.75-1.12,10.64-2.23,21.29-3.35,31.93-.44,4.22,6.16,4.19,6.6,0,1.28-12.22,2.56-24.44,3.85-36.67.45-4.25,1.99-9.59-.25-13.57Z"/>
  <path class="st1" d="M336.83,280.43c.56,1.96,1.12,3.99,1.68,6.06,1.31-.28,2.35-1.28,2.12-3.05-2-15.13-4.07-31.08-9.4-45.43-3.51-9.45-11.18-13.91-20.2-17.77-4.48-1.91-8.94-3.24-13.14-5.77-3.42-2.06-6.74-4.33-9.95-6.71-2.22-1.65-4.38.21-4.69,2.39,2.11,1.5,4.42,2.74,7.39,3.17-2.97-.42-5.29-1.67-7.39-3.17-.17,1.17.19,2.43,1.36,3.31,6.33,4.7,12.81,8.75,20.25,11.4,5.26,1.87,10.79,4.38,15.2,7.86,3.01,2.36,4.26,5.34,5.45,8.89,2.88,8.55,4.53,17.55,6.09,26.41.63,3.59,1.22,7.19,1.76,10.8.19,1.26.37,2.53.55,3.8.06.42.29,2.14.12.83.32,2.41,2.67,3.43,4.48,3.05-.56-2.07-1.12-4.1-1.68-6.06Z"/>
  <path class="st1" d="M324.11,256.87c-.15-4.24-6.75-4.26-6.6,0,.66,18.75-7.01,36.6-4.3,55.36.6,4.19,6.96,2.41,6.36-1.75-2.59-17.96,5.17-35.56,4.54-53.61Z"/>
  <path class="st1" d="M103.48,227.05c-3.61-2.25-6.93,3.45-3.33,5.7,11.05,6.89,20.67,15.45,28.89,25.54,2.68,3.3,7.33-1.4,4.67-4.67-8.56-10.52-18.72-19.4-30.22-26.57Z"/>
  <path class="st1" d="M99.9,391.79c7.73-4.71,17.41-6.4,26.39-6.38.38,0,.71-.07,1.01-.16-7.83,3.64-14.23,9.38-18.44,17.05-2.05,3.72,3.65,7.06,5.7,3.33,3.7-6.72,9.39-12.04,16.54-14.94,3.88-1.58,2.19-7.96-1.75-6.36-.45.18-.87.4-1.31.59,2.37-1.52,1.8-6.1-1.75-6.11-10.11-.02-21.02,1.99-29.72,7.28-3.62,2.21-.31,7.92,3.33,5.7Z"/>
  <path class="st1" d="M139.74,372.38c1.41-28.11,2.81-56.21,4.22-84.32.21-4.11.41-8.22.62-12.33.21-4.25-6.39-4.23-6.6,0-1.41,28.11-2.81,56.21-4.22,84.32-.21,4.11-.41,8.22-.62,12.33-.21,4.25,6.39,4.23,6.6,0Z"/>
  <path class="st3" d="M290.18,309.45c-.92-.66-2.83-1.52-3.47-2.47-.63,1.55-3.27,5.5-3.95,5.91-.15.09-.26.17-.34.25,2.78,1.05,5.81,4.2,8.18,5.89,4.55,3.25,9.09,6.5,13.63,9.75,5.83,4.17,11.66,8.34,17.49,12.51.29-.37.58-.94.79-1.26.77-1.2,1.46-2.64,2.38-3.73.45-.53.63-1.06.78-1.36-3.32-1.6-6.59-4.82-9.51-6.91-8.66-6.19-17.32-12.39-25.98-18.58Z"/>
  <path class="st1" d="M257.47,34.26c-.9,1.94.04,4.83,2.85,4.88.77.01,1.52.12,2.24.29-1.19-2.23-2.98-3.86-5.09-5.17Z"/>
  <path class="st1" d="M364.37,364.63c-1.01-3.1-4.53-5.02-7.04-6.88-4.87-3.6-9.73-7.2-14.6-10.8-3.8-2.81-7.59-5.62-11.39-8.43.07-.14.15-.28.22-.42,2.17-4.08.32-6.88-2.98-9.27-9.95-7.21-20-14.3-29.99-21.45-3.02-2.16-6.07-4.96-9.36-6.69-3.12-1.65-5.36-.58-7.16,1.37-1.2-.89-2.39-1.77-3.59-2.66l.1,2.23-.1-2.23c-1.7-1.26-3.4-2.52-5.1-3.78.76,2.19,1.45,4.42,1.84,6.8-.4-2.38-1.08-4.61-1.84-6.8-5.67-4.2-11.35-8.4-17.02-12.6-5.8-4.29-13.5-12.78-19.53-4.09-1.77,2.55-3.5,5.13-5.2,7.73-.01-.33-.06-.68-.21-1.06-.63-1.66-1.28-3.32-1.94-4.97-.31,2.82-.46,5.71-.46,8.59,0-2.88.15-5.76.46-8.59-6.2-15.61-13.75-30.77-22.41-45.29,4.5-4.9,9.43-9.46,14.67-13.62,2.52,7.09,5.92,13.88,10.25,20.05.17.24.36.44.55.62-.07.61.04,1.23.38,1.77-.14.24-.27.5-.36.81-2.36,8.05-3.44,16.1-3.56,24.48-.02,1.51.8,2.47,1.87,2.91.41-1.77.89-3.49,1.44-5.14-.55,1.65-1.03,3.37-1.44,5.14,1.94.8,4.69-.17,4.73-2.91.11-7.81,1.12-15.22,3.32-22.72.01-.04.01-.07.02-.11,2.38.29,4.87.18,7.1-.02,1.06-.09,2.38-.22,3.66-.51,6.77,13.15,12.39,27.4,16.99,41.42.71,2.16,2.88,2.65,4.53,2.02-.62-1.88-1.18-3.79-1.51-5.82.34,2.02.89,3.94,1.51,5.82,1.41-.54,2.45-1.9,1.83-3.77-4.84-14.73-10.77-29.73-17.92-43.51,1.64-3.36,2.17-7.54,2.35-11.67,1.2,1.63,2.43,3.22,3.74,4.69,1.61,1.81,3.81,1.07,4.89-.49.37,1.57.73,3.14,1.08,4.7,3.85,16.89,6.6,34.04,8.27,51.28.17,1.73,1.39,2.74,2.74,3.05l-.27-5.91.27,5.91c1.92.44,4.1-.56,3.86-3.05-1.72-17.83-4.52-35.58-8.5-53.04-3.12-13.68-6.66-27.85-13.21-40.36-1.97-3.76-7.67-.43-5.7,3.33,4.67,8.91,7.68,18.77,10.15,28.63-6.46-7.69-11.15-17.05-19.46-22.97-.04-.03-.09-.05-.13-.08,3.83-3.39,6.92-7.57,10.04-11.81.66-.9.74-1.79.47-2.55,4.12,3.2,8.09,6.59,12.18,9.84.56.44.73.49.77.47,0,.08.08.32.4.95.94,1.86,1.96,3.68,2.94,5.52,4.55,8.55,9.1,17.1,13.65,25.66,2,3.75,7.7.42,5.7-3.33-4.39-8.26-8.79-16.51-13.18-24.77-1.57-1.16-3.23-2.2-5.18-2.85,1.95.65,3.61,1.69,5.18,2.85-.43-.8-.85-1.61-1.28-2.41-1.4-2.62-2.4-5.02-4.61-6.99-5.08-4.51-10.56-8.77-16.04-12.79-.87-.64-1.73-.74-2.47-.51v-2.34c0-.69-.19-1.26-.48-1.72,2.88-2.58,5.49-5.49,7.76-8.66,6.98-9.74,10.04-21.18,11.8-32.85,1.84-.73,3.61-2.22,5.13-3.48,4.02-3.34,6.29-8.28,7.28-13.33,1.26-6.4,2.82-22.6-7.14-22.72.01-.02.03-.04.04-.07,5.63-13.25,7.85-28.37,4.68-42.56-2.32-10.4-10.92-23.09-22.55-23.31-1.44-.03-2.38.72-2.85,1.72,2.11,1.31,3.9,2.94,5.09,5.17,8.17,1.93,13.22,13.22,14.42,20.68,1.3,8.05.86,16.45-1.04,24.45-1.67-10.28-6.08-19.95-13.08-28.24-2.04-2.42-5.13-.44-5.46,2.06,1.74,1.17,3.35,2.54,4.63,4.24-1.28-1.7-2.89-3.07-4.63-4.24-.11.86.1,1.78.8,2.61,9.26,10.96,13.54,25.42,11.57,39.66-.02.13,0,.24-.01.36-.92-.01-1.84-.02-2.76-.03-1.95-.83-4.73.13-4.73,2.89,0,15.16-22.82,12.27-19.01-2.39.48-1.84-.61-3.43-2.3-4.06-4.13-1.54-8.92-1.68-13.29-1.64-1.96.02-3,1.44-3.16,2.95-.13.3-.24.61-.28.97-.96,7.25-6.46,13.3-14.19,12.52-8.58-.86-11.78-8.3-11.4-16.09.09-1.81-1.58-3.27-3.3-3.3-4.35-.08-8.71-.17-13.06-.25.97-5.25,4.21-10.69,8.89-12.96,1.98-.96,2.03-2.94,1.1-4.38-.94.91-1.88,1.84-2.81,2.77.93-.93,1.87-1.86,2.81-2.77-.87-1.34-2.59-2.21-4.43-1.32-6.45,3.13-10.82,10.61-12.08,17.8-.34-.78-1-1.42-2.09-1.69-.64-.16-1.25-.26-1.83-.33-.47-6.66-.33-13.4-.25-20.06.03-2.9-3.04-3.82-5-2.76-.22,2.55-.23,5.19-.23,7.82,0-2.64,0-5.27.23-7.82-.91.49-1.58,1.41-1.6,2.76-.08,7.06-.24,14.22.34,21.27,0,.09.03.16.04.24-5.28,3.73-6.26,13.38-5.56,19.87.84,7.79,5.4,22.12,14.93,22.07.27,2.43.67,4.88,1.17,7.33-.17.38-.29.81-.31,1.31-.37,9.04-.75,18.09-1.12,27.13-1.48-.59-3.18-.33-4.09,1.28-1.81,3.22-3.63,6.45-5.44,9.67-.08.13-.12.27-.18.4-.44.06-.85.22-1.23.47-1.02-.03-2.03.44-2.67,1.64-2.04,3.81-4.46,7.38-6.85,10.97-.67-.15-1.4-.1-2.15.24-17.62,7.93-36.43,17.05-55.54,20.5-1.9.34-2.56,1.84-2.33,3.31.69-.22,1.37-.44,1.96-.74-.59.3-1.27.51-1.96.74.27,1.76,1.82,3.46,4.09,3.05,11.97-2.16,23.6-7.14,34.82-11.68,5.27-2.13,10.52-4.32,15.74-6.59-1.05,2.6-.41,4.37.34,7.48,1.92,7.91,3.83,15.83,5.75,23.74,1,4.13,7.37,2.38,6.36-1.75-1.78-7.35-3.56-14.71-5.34-22.06-.38-1.56-.67-3.18-1.14-4.72.28-.23.72-1.29,1.16-2.02,2.93-4.84,6.28-9.43,9.17-14.29,25.33,28.98,46.59,62.81,60.15,98.85.84,2.24,3.27,2.65,4.93,1.86-4.39,6.81-8.66,13.71-13.04,20.5-17.74,27.47-36.02,54.67-53.26,82.46-.38.61-.78,1.21-1.17,1.82-1.03,1.6-.46,3.14.7,4.05l2.7-4.16-2.7,4.16c1.42,1.12,3.73,1.25,5-.72,14.75-22.85,29.51-45.69,44.26-68.54,8.53-13.21,17.06-26.42,25.59-39.63.77-1.19,3.57-7.39,5.01-7.75.73-.19,4.16,3.03,4.82,3.52,10.16,7.52,20.31,15.03,30.47,22.55-.05.09-.11.18-.16.26-2.63,4.11-3.68,7.46.59,10.92,3.67,2.99,7.78,5.56,11.63,8.31,9.58,6.85,19.16,13.7,28.74,20.55.63.45,1.25.62,1.82.6,2.86.47,5.15-1.47,6.99-3.95,9.54,7.03,19.87,13.61,28.84,21.34,1.88,1.62,1.19,1.63-.26,3.72-3.05,4.43-6.1,8.86-9.15,13.29-18.13,26.33-36.85,52.34-54.43,79.03-.1.15-.2.3-.31.44-2.6-.6-4.93-1.14-6.38-1.86-5.64-2.81-10.25-7.47-15.95-10.06-4.55-2.07-8.91-1.04-13.59-.1-8.91,1.8-17.53,1.38-26.27-.66.05-1.19-.52-2.39-1.6-3.03-1.15-.69-2.3-1.38-3.45-2.07.23-1.32-.44-2.75-1.58-3.46-11.97-7.52-23.94-15.04-35.91-22.56-8.95-5.62-18.14-10.92-26.89-16.86l-2.81,4.32,2.81-4.32c-2-1.36-3.99-2.74-5.93-4.18-4.45-3.29-7.15-5.94-8.92-11.28-1.82-5.51-4.54-8.66-10.59-9.02-4.24-.26-4.23,6.35,0,6.6,4.91.3,5.15,8.53,7.74,11.99,2.13,2.83,5.17,4.99,7.98,7.08,7.4,5.52,15.31,10.4,23.22,15.16,10.24,6.15,20.27,12.64,30.39,18.99l12.66,7.95c-10.77,16.73-21.48,34.16-28.77,52.65-.32.82-.29,1.53-.05,2.13-11.9-6.18-23.03-14.27-34.2-21.64-16.24-10.71-32.38-21.56-48.52-32.41-6.48-4.36-12.96-8.73-19.45-13.07-5.13-3.44-9.59-6.42-13.54-11.34-1.84-2.29-3.7-4.6-4.34-7.54-.76-3.47-.23-7.38-.12-10.91.29-9.3.57-18.59.88-27.89.57-17.01,1.24-34.02,2.3-51,1.22-19.59,2.95-39.16,5.6-58.61,1.91-14.06,1.43-33.7,15.12-41.99,2.2-1.33,1.84-3.94.41-5.31-1.52.55-2.96,1.35-3.61,3.31.66-1.97,2.09-2.76,3.61-3.31-.93-.89-2.31-1.26-3.75-.39-11.53,6.97-14.56,19.34-16.28,31.88-2.27,16.65-4.43,33.3-5.9,50.04-1.61,18.35-2.63,36.74-3.38,55.15-.75,18.33-2.09,36.91-1.79,55.26.28,16.92,17.47,25.68,29.78,33.96,16.68,11.21,33.34,22.44,50.08,33.56,14.29,9.49,28.5,20.04,43.76,27.97,2.89,1.5,5.52-1.5,4.88-3.87-.93.65-2.02,1.19-2.02,2.45,0-1.27,1.09-1.81,2.02-2.45-.03-.13-.07-.26-.13-.38.14.07.29.1.44.15.54-.42.96-.93.96-1.71,0,.78-.42,1.29-.96,1.71.43.14.88.23,1.34.21-.14-.24-.27-.51-.38-.83.11.32.24.58.38.83,1.3-.03,2.6-.69,3.2-2.19,6.79-17.22,16.81-33.51,26.86-49.14.23.14.46.28.7.42-9.56,16.76-18.13,34.06-27.81,50.76-.39.67-.51,1.33-.45,1.94,1.24.42,2.62.69,3.73,1.79-1.11-1.11-2.49-1.38-3.73-1.79.28,2.72,4.41,4.4,6.15,1.39,1.15-1.98,2.28-3.97,3.39-5.96,5.72,4.1,10.35,10.34,15.42,15.12,7,6.59,14.83,10.46,23.31,14.83,6.18,3.18,14.77,9.54,20.88,2.57,1.91-2.18,2.5-4.43,2.21-6.58,4.06.43,7.96-.64,10.48-4.83,1.49-2.47,1.74-4.69,1.24-6.73,2.88-.1,5.61-1.25,7.75-4.1,1.71-2.28,2.32-4.4,2.2-6.39,1.5.46,2.99.7,4.43.59,7.41-.55,11.5-10.05,6.76-15.62-1.98-2.33-4.39-4.4-6.91-6.38,6.03.64,12.01-.28,14.56-5.96,2.88-6.39-1.43-9.36-6.93-11.19,9.79-14.21,19.57-28.42,29.36-42.63-.92-.32-1.89-.68-2.97-1.04,1.08.36,2.05.72,2.97,1.04,6.6-9.58,13.19-19.16,19.79-28.74,3.9-5.66,7.79-11.31,11.69-16.97,2.21-3.21,5.46-6.61,4.09-10.83ZM235.25,205.1c-.16-.16-.34-.32-.55-.46-17.14-11.63-36.85-19.36-53.84-31.23.21-5.19.43-10.37.64-15.56,8.43,18.58,24.06,33.49,46.29,32.59,7.09-.29,13.65-2.6,19.41-6.27v9.69c0,.14.03.27.04.4-3.34,4.36-6.89,8.31-11.99,10.84ZM166.38,111.04c-.47-3.85-1.33-16.35,5.51-14.63,1.57.39,2.79-.29,3.48-1.33,0,.15-.02.3-.02.45-.04,2.57,2.35,3.57,4.26,3.04.49.37,1.12.6,1.89.61,3.52.07,7.05.13,10.57.2.68,10.1,6.94,18.71,17.95,19.45,10.67.72,18.02-6.87,20.28-16.44,2.03.04,4.08.18,6.06.59-.64,8.59,4.9,16.67,14.05,17.86,8.97,1.17,16.33-5.01,18.06-13.26,2.01.02,4.02.05,6.02.07,1.8.02,2.82-1.15,3.1-2.51,3.53.75,1.61,13.06,1.19,14.98-.67,3.03-2.28,6.92-4.82,9.47.27-2.46.52-4.91.76-7.35.41-4.22-6.19-4.2-6.6,0-.36,3.72-.74,7.5-1.22,11.26-.34.64-.46,1.36-.28,2.08-1.4,10.01-3.73,19.89-9.03,28.58-6.44,10.55-17.06,19.05-29.79,19.66-28.7,1.37-44.63-28.24-46.71-52.95-.08-.9-.45-1.6-.98-2.12-.33-1.73-1.81-3.21-3.98-2.54-6.3,1.97-9.25-11.12-9.75-15.19ZM203.52,229.51c-10.01-16.04-21.37-31.25-33.7-45.39.3-.25.57-.55.8-.95,1.21-2.15,2.42-4.3,3.63-6.45,17.5,12.77,37.96,20.88,55.97,32.86.77-.65,1.75-1.02,3.21-.65-1.46-.37-2.44,0-3.21.65.38.25.77.5,1.15.76,1.18.8,2.33.68,3.22.09.94.83,2.31,1.2,3.74.51.8-.38,1.55-.8,2.29-1.24.1.88.53,1.73,1.42,2.37,3.57,2.54,6.44,5.91,9.1,9.5-.17,3.23-.29,6.46-.57,9.69-.17,1.94-.14,5.29-.99,7.55-.21.1-.42.23-.6.37.25.09.33.35-.07.32-.09,0-.18,0-.28.02-.46.52-.76,1.21-.76,2.1,0-1.02.15-1.63.34-2-.24.07-.49.16-.7.2-1.23.22-2.49.27-3.74.31-1.57.04-4,.1-5.51-.28-.06-.45-.23-.92-.56-1.4-4.24-6.04-7.63-12.66-10-19.65-.15-.43-.36-.79-.61-1.09.86-.61,1.72-1.22,2.58-1.81,2.29-1.55,1.66-4.54-.04-5.74-1.18,1.34-1.99,3.16-3.89,3.16,1.9,0,2.71-1.82,3.89-3.16-.89-.63-2.07-.78-3.29.04-8.22,5.58-15.98,12.06-22.81,19.31ZM324.89,336.29c-.92,1.09-1.62,2.53-2.38,3.73-.21.32-.5.9-.79,1.26-5.83-4.17-11.66-8.34-17.49-12.51-4.55-3.25-9.09-6.5-13.63-9.75-2.37-1.69-5.4-4.85-8.18-5.89.08-.08.19-.16.34-.25.68-.41,3.32-4.35,3.95-5.91.64.95,2.55,1.81,3.47,2.47,8.66,6.19,17.32,12.39,25.98,18.58,2.92,2.09,6.2,5.31,9.51,6.91-.15.3-.33.83-.78,1.36ZM299.52,470.59c2.47,3.39-3.82,3.87-5.26,3.92-4.38.15-8.45-1.38-12.59-2.53-.45-.13-.87-.15-1.26-.11-3.22-2.72-6.43-5.45-9.65-8.17-3.22-2.73-7.91,1.92-4.67,4.67.34.29.69.58,1.03.87,5.22,4.42,10.43,8.85,15.65,13.26,2.28,1.93,4.65,3.74,6.97,5.62,1.09.89,4.03,2.65,4.46,4.08.61,2.05-1.4,4.1-3.41,4.12-3.48.03-9.02-4.39-11.96-6.18-3.17-1.92-6.78,2.61-4,5.18,2.5,2.31,7.52,5.67,5,9.29-2.74,3.93-7.83.33-10.7-1.7-3.52-2.49-6.62,3.18-3.33,5.7,1.66,1.27,6.38,4.31,5.13,7.02-2.1,4.57-8.5,1.38-11.51-.24-3.81-2.05-6.73,3.25-3.33,5.7,2.6,1.87,4.94,6.56-.41,6.4-2.91-.09-6.28-3.04-8.81-4.37-5.99-3.15-12.48-5.64-17.84-9.86-7.8-6.13-13.64-14.91-21.77-20.59,6.79-12.39,13.26-24.95,20.21-37.24,4.22,1.06,8.56,1.82,12.91,2.24.92.09,1.83.18,2.75.24,4.18.25,8.2-.16,12.31-.9,4.37-.79,8.84-2.63,13.06-.44,8.23,4.28,14.45,11.12,24.07,12.57,1.72.26,5.86-.04,6.97,1.48Z"/>
  <path class="st1" d="M248.2,239.63c.14-.04.28-.08.42-.1.11-.12.23-.24.35-.35-.21-.07-.52-.01-.77.45Z"/>
  <path class="st1" d="M386.28,117.16c1.33,1.33,3.32,1.18,4.67,0,2.61-2.28,5.22-4.56,7.83-6.84,1.34-1.17,1.2-3.47,0-4.67-1.33-1.33-3.32-1.18-4.67,0-2.61,2.28-5.22,4.56-7.83,6.84-1.34,1.17-1.2,3.47,0,4.67Z"/>
  <path class="st1" d="M381.56,109.92c1.25-4.28,2.5-8.57,3.76-12.85,1.19-4.09-5.17-5.83-6.36-1.75-1.25,4.28-2.5,8.57-3.76,12.85-1.19,4.09,5.17,5.83,6.36,1.75Z"/>
  <path class="st1" d="M362.82,108.84c1.39,3.98,7.77,2.27,6.36-1.75-1.15-3.3-2.3-6.59-3.45-9.89-1.39-3.98-7.77-2.27-6.36,1.75,1.15,3.3,2.3,6.59,3.45,9.89Z"/>
  <path class="st1" d="M403.64,296.23c-.4,3.49-1.15,6.78-1.91,10.6.76-3.82,1.52-7.11,1.91-10.6-1.19-.2-2.48.17-3.34,1.43-3.79,5.52-10.94,9.05-17.62,6.95-4.47-1.41-8.33-5.22-11.69-8.3-6.65-6.1-16.46-14.65-18.51-23.86-.38-1.69-1.66-2.39-2.98-2.35-1.43,2.68-2.49,5.4-.57,9.23-1.92-3.83-.86-6.55.57-9.23-1.82.05-3.71,1.5-3.43,3.74-1.9,6.46-3.81,12.92-5.76,19.37,1.04,3.9,2.08,7.78,3.12,11.42-1.04-3.64-2.08-7.52-3.12-11.42-2.46,8.14-4.99,16.26-7.69,24.31-1.35,4.04,5.02,5.77,6.36,1.75,4.03-12.01,7.68-24.15,11.27-36.3,1.45,2.11,3.08,4.09,4.62,5.97,4.81,5.85,10.25,11.32,16.15,16.08,4.83,3.89,9.9,6.99,16.37,6.75,3.66-.14,7.08-1.18,10.12-2.91-6.67,22.66-14.04,45.1-20.85,67.71-3.31,11-5.29,23.9-11.67,33.62-5.68,8.65-18.88,12.41-28.27,7.6-3.05-1.56-5.82,1.86-4.76,4.26.83.16,1.7.26,2.67.26-.97,0-1.84-.1-2.67-.26.25.56.71,1.07,1.43,1.44,8.86,4.54,20.54,3.46,29.04-1.57,10.24-6.07,13.5-19.18,16.54-29.82,8.61-30.02,18.71-59.6,27.27-89.64.2-.71.17-1.35-.02-1.9,1.08-2.09-.61-4.02-2.58-4.35Z"/>
  <path class="st1" d="M411.83,218.5c.49-.64.91-1.37,1.25-2.19,2.46-6.02,6.18-15.11,3.87-21.66-2.17-6.15-8.1-8.09-13.86-6.32-2.47-3.62-7.54-4.97-11.98-4.53-1.85-4.4-6.34-7.22-11.19-7.27-3.73-.04-6.51,1.46-8.76,3.69-.06-5.11-.15-10.23-.3-15.34-.18-6.14-.4-12.3-.93-18.43-.43-4.98-1.23-10.46-6.5-12.55-15.11-6.01-12,22.08-12.13,29.05-.19,9.43-.24,18.86-.18,28.29.05,8.83-2.43,17.58-1.91,26.4.58,9.83,5.56,19.33,8.53,28.6,1.29,4.03,2.67,7.64,1.62,11.83-.42,1.7-.99,3.4-1.65,5.04-1.6-.9-4.01-.12-4.8,1.68.49.81.71,1.62,1.52,2.43-.81-.81-1.02-1.62-1.52-2.43-.26.59-.34,1.28-.17,2.06,2.46,11.02,13.07,21.15,21.71,27.69,4.08,3.09,9.17,6.16,14.44,6.25,5.91.1,9.76-4.08,12.8-8.65.16-.24.28-.49.37-.73h-1.44,1.44c1.21-3.24-3.88-5.89-6.07-2.61-.16.25-.33.48-.49.71-.25,1.64-.38,3.35-.38,5.2v-1.1,1.1c0-1.84.13-3.56.38-5.2-3.07,4.3-6.14,5.6-11.34,3.3-3.77-1.67-7.02-4.36-10.04-7.11-4.74-4.32-10.35-9.74-13.33-15.89.75-.17,1.44-.68,1.87-1.65,1.98-4.36,4.11-9.44,3.86-14.31-.46-8.72-5.53-17.96-8.25-26.18-.61-1.84-1.12-3.62-1.53-5.4,1.22,1.75,4.19,2.4,5.66,0,3.04-4.96,5.74-10.06,8.19-15.33,1.21-2.61,2.32-5.25,3.48-7.88.89-2.01,2.67-7.38,4.08-2.37,1.08,3.81-1.1,9.25-2.12,12.91-.78,2.78-1.61,5.55-2.49,8.3-.35,1.11.04,2.41.85,3.21,5.22,5.21,11.56,12.96,10.71,20.75-.46,4.22,6.15,4.18,6.6,0,.83-7.7-3.74-15.36-8.91-21.39.85-.11,1.64-.35,2.37-.69,1.62,1.88,4.04,3.11,6.68,3.4,3.06.34,5.63-.95,7.52-3,2.75,2.05,6.75,2.32,9.86.53-.05.27-.07.56-.05.88.74,9.15,3.46,16.78-1.65,25.2-2.71,4.46-5.59,8.68-7.34,13.62-2.7,7.59-5.2,15.26-7.73,22.9-.84,2.53,1.35,4.16,3.43,4.03.55-2.42,1.39-4.69,2.52-6.96-1.13,2.27-1.97,4.54-2.52,6.96,1.24-.08,2.44-.77,2.94-2.27,2.61-7.86,5.06-15.8,7.96-23.55,1.82-4.89,6.55-10.5,8.97-16.17,3.32-7.75.68-15.76.03-23.76-.19-2.28-2.22-3.33-3.98-3.13ZM369.08,194.2c-4.03,8.39-7.48,16.81-12.37,24.78-.22.36-.34.71-.42,1.06-.43-2.55-.59-5.14-.4-7.92.35-5.03,1.41-10,1.74-15.03.66-10.32.03-20.84.21-31.19.09-4.88.2-9.76.31-14.63.04-1.59-.79-10.94,1.72-11.46,4.64-.95,4.12,17.58,4.22,20.2.38,9.98.54,19.98.54,29.98,0,.55.11,1.02.31,1.43.48,1.83,2.58,3.05,4.31,2.48-.05.11-.11.21-.16.32ZM381.93,213.8c1.01-2.99,2.04-6.32,2.64-9.61-.1,3,.44,9.02-2.64,9.61ZM385.08,198.37c-.11-3.61-1.2-6.82-4.03-8.98-3.42-2.61-6.29-2.06-8.57-.03,1.41-2.67,3.19-5.43,5.94-6.1,4.75-1.16,6.78,2.58,7.02,6.54.17,2.82-.08,5.7-.36,8.56ZM397.92,197.97c-.27,4.62-.93,9.21-1.58,13.78-.03.1-.07.19-.09.3-.13,1.47-.73,2.77-1.79,3.88-2.2,1.13-3.72.68-4.56-1.3.37-.91.66-1.89.84-2.94.67-3.88.47-8.08.77-12.02.23-2.99.68-6.22.66-9.37,1.45-.08,3.08,0,4.22.76,2.25,1.49,1.66,4.5,1.53,6.91ZM408.57,209.51c-.63,1.91-1.02,5.27-3.15,5.91-2.22.67-2.72-.89-2.58-2.71.94-5.78,2.3-12.15,1.95-18.01,9.12-2.79,5.34,10.06,3.77,14.81Z"/>
  <path class="st1" d="M220.83,86.24c-6.12-2.3-13.34-2.72-19.64-.8-4.05,1.23-2.32,7.61,1.75,6.36,5.27-1.6,11.04-1.12,16.14.8,3.98,1.5,5.7-4.88,1.75-6.36Z"/>
  <path class="st1" d="M258.8,97.29c2.76,3.24,7.41-1.45,4.67-4.67-4.2-4.93-12.39-5.37-18.18-3.62-4.06,1.22-2.33,7.6,1.75,6.36,3.67-1.11,9.05-1.27,11.76,1.92Z"/>
  <path class="st1" d="M211.74,104.94c4.25,0,4.25-6.6,0-6.6s-4.25,6.6,0,6.6Z"/>
  <path class="st1" d="M249.88,107.96c4.25,0,4.25-6.6,0-6.6s-4.25,6.6,0,6.6Z"/>
  <path class="st1" d="M228.86,134.23c1.47.19,2.95.38,4.42.58,1.72.22,3.37-1.68,3.3-3.3-.09-1.98-1.46-3.06-3.3-3.3-1.47-.19-2.95-.38-4.42-.58-1.72-.22-3.37,1.68-3.3,3.3.09,1.98,1.46,3.06,3.3,3.3Z"/>
  <path class="st1" d="M227.14,162.17c7.2.79,14.44-4.65,19.54-9.18,2.3-2.04.31-5.44-2.33-5.63-10.4-.77-20.8-1.54-31.2-2.31-.59-.24-1.2-.24-1.78-.07-1.72.18-2.56,1.64-2.52,3.15-.07.82.16,1.69.83,2.47,4.32,5.01,10.62,10.82,17.47,11.57ZM235.47,153.3c-2.82,1.68-5.89,2.79-8.74,2.08-2.13-.53-4.16-1.71-6.05-3.18,4.93.37,9.86.73,14.79,1.1Z"/>
  <path class="st1" d="M252.3,29.51c-11.25-12.13-33.55-14.61-48.66-9.96-16.76,5.17-33.58,20.7-37.3,38.23-.31,1.47.3,2.64,1.24,3.35.8-2.68,2.1-5.16,4.24-7.3-2.14,2.14-3.44,4.62-4.24,7.3,1.72,1.3,4.55,1.09,5.12-1.59,3.24-15.29,18.02-29.1,32.69-33.62,12.93-3.99,32.54-2.2,42.24,8.26,2.15,2.32,5.26.34,5.55-2.11-1.07-.46-2.16-.9-3.25-1.34,1.09.44,2.19.88,3.25,1.34.1-.85-.14-1.76-.88-2.56Z"/>
  <path class="st1" d="M252.85,52.01c-7.76-7.89-20.28-11.65-30.41-5.93-5.79,3.28-9.42,9.02-14.42,13.22-6.47,5.43-15.22,7.33-23.44,5.81-4.15-.77-5.93,5.59-1.75,6.36,4.61.86,9.16.87,13.52.08,2.29-1.86,4.7-3.46,7.38-4.54-2.68,1.07-5.1,2.67-7.38,4.54,6.99-1.26,13.48-4.6,18.82-9.93,4.47-4.45,8.54-10.33,15.17-11.5,6.69-1.18,13.24,1.86,17.85,6.54,1.73,1.76,4.02.92,5.06-.68-1.51-.77-3.02-1.47-4.41-2.17,1.4.7,2.9,1.4,4.41,2.17.75-1.16.86-2.71-.39-3.99Z"/>
</svg>