<svg viewBox="0 0 41 28" fill="none" xmlns="http://www.w3.org/2000/svg">
  <style>
    .header-logo-color {
      fill: #2563EB;
    }
    @media (prefers-color-scheme: dark) {
      .header-logo-color {
        fill: #FFFFFF;
      }
    }
  </style>

  <path class="header-logo-color" d="M8.66667 6.63207H2.54167C1.41875 6.63207 0.5 5.71332 0.5 4.5904C0.5 3.46749 1.41875 2.54874 2.54167 2.54874H8.66667C9.78958 2.54874 10.7083 3.46749 10.7083 4.5904C10.7083 5.71332 9.78958 6.63207 8.66667 6.63207ZM8.66667 12.7571H2.54167C1.41875 12.7571 0.5 13.6758 0.5 14.7987C0.5 15.9217 1.41875 16.8404 2.54167 16.8404H8.66667C9.78958 16.8404 10.7083 15.9217 10.7083 14.7987C10.7083 13.6758 9.78958 12.7571 8.66667 12.7571ZM37.005 25.5992L30.635 19.2292C28.8792 20.3725 26.7762 21.0258 24.51 20.9033C19.6712 20.6787 15.5267 16.9017 14.8733 12.1037C13.975 5.26415 19.8754 -0.513764 26.7762 0.649986C30.7575 1.32374 34.065 4.42707 34.9429 8.36749C35.6167 11.3483 34.9633 14.125 33.5137 16.33L39.9042 22.7204C40.7004 23.5167 40.7004 24.8029 39.9042 25.5992C39.1079 26.3954 37.8012 26.3954 37.005 25.5992ZM31.125 10.7154C31.125 7.34665 28.3687 4.5904 25 4.5904C21.6312 4.5904 18.875 7.34665 18.875 10.7154C18.875 14.0842 21.6312 16.8404 25 16.8404C28.3687 16.8404 31.125 14.0842 31.125 10.7154ZM2.54167 27.0487H18.875C19.9979 27.0487 20.9167 26.13 20.9167 25.0071C20.9167 23.8842 19.9979 22.9654 18.875 22.9654H2.54167C1.41875 22.9654 0.5 23.8842 0.5 25.0071C0.5 26.13 1.41875 27.0487 2.54167 27.0487Z"/>
</svg>
