<svg width="140" height="158" viewBox="0 0 140 158" fill="none" xmlns="http://www.w3.org/2000/svg">
<path d="M37.5 157.299L78.7 93.9992L42.2 70.1992L1 133.499H27.4L37.5 157.299Z" fill="#3CA5EE"/>
<path d="M103.4 157.299L62.2 93.9992L98.7 70.1992L140 133.499H113.5L103.4 157.299Z" fill="#3CA5EE"/>
<path d="M30.5 88.5L110.5 88L118.7 101C109 112 95.6 119.7 80.5 122.1L70.5 107L60.4001 122.3C45.2001 120 31.6 112.5 21.8 101.6L30.5 88.5Z" fill="#2898BA"/>
<path d="M70 120C103.1 120 130 93.1 130 60C130 26.8 103.1 0 70 0C36.8 0 10 26.8 10 60C10 93.1 36.8 120 70 120Z" fill="#1D4AB0"/>
<path d="M70 112C98.7 112 122 88.7 122 60C122 31.2 98.7 8 70 8C41.2 8 18 31.2 18 60C18 88.7 41.2 112 70 112Z" fill="#173A89"/>
<path d="M70 110C97.6 110 120 87.6 120 60C120 32.3 97.6 10 70 10C42.3 10 20 32.3 20 60C20 87.6 42.3 110 70 110Z" fill="#C8E0FF"/>
<path d="M108.6 28C117.2 38.1 121.3 51.3 120.1 64.5C118.9 77.7 112.6 89.9 102.4 98.4C92.2 106.9 79.1 111 65.9 109.8C52.7 108.7 40.5 102.3 32 92.1C37.1 98.2 46 100.7 56.8 99C67.6 97.3 79.4 91.6 89.5 83C99.7 74.5 107.4 63.9 111 53.6C114.6 43.3 113.8 34.1 108.6 28Z" fill="#60A5FA"/>
<path d="M95.9834 27.1719V34.2861L70.1426 94H56.1895L82.0303 37.499H48.7539V27.1719H95.9834Z" fill="#0C245B"/>
</svg>
