<svg viewBox="30 40 140 158" fill="none" xmlns="http://www.w3.org/2000/svg">
  <path d="M67.5 197.3L108.7 134L72.2 110.2L31 173.5L57.4 173.5L67.5 197.3Z" fill="#3CA5EE"/>
  <path d="M133.4 197.3L92.2 134L128.7 110.2L170 173.5L143.5 173.5L133.4 197.3Z" fill="#3CA5EE"/>
  <path d="M60.5 128.5L140.5 128L148.7 141C139 152 125.6 159.7 110.5 162.1L100.5 147L90.4 162.3C75.2 160 61.6 152.5 51.8 141.6L60.5 128.5Z" fill="#2898BA"/>
  <path d="M100 160C133.1 160 160 133.1 160 100C160 66.8 133.1 40 100 40C66.8 40 40 66.8 40 100C40 133.1 66.8 160 100 160Z" fill="#9A3221"/>
  <path d="M100 152C128.7 152 152 128.7 152 100C152 71.2 128.7 48 100 48C71.2 48 48 71.2 48 100C48 128.7 71.2 152 100 152Z" fill="#862514"/>
  <path d="M100 150C127.6 150 150 127.6 150 100C150 72.3 127.6 50 100 50C72.3 50 50 72.3 50 100C50 127.6 72.3 150 100 150Z" fill="#EE674C"/>
  <path d="M138.6 68C147.2 78.1 151.3 91.3 150.1 104.5C148.9 117.7 142.6 129.9 132.4 138.4C122.2 146.9 109.1 151 95.9 149.8C82.7 148.7 70.5 142.3 62 132.1C67.1 138.2 76 140.7 86.8 139C97.6 137.3 109.4 131.6 119.5 123C129.7 114.5 137.4 103.9 141 93.6C144.6 83.3 143.8 74.1 138.6 68Z" fill="#D95946"/>
  <path d="M91.3 93.4H98.4C100.7 93.4 102.6 93 104.1 92.2C105.6 91.4 106.7 90.3 107.4 88.9C108.1 87.4 108.5 85.7 108.5 83.8C108.5 82.1 108.1 80.6 107.5 79.2C106.8 77.9 105.8 76.8 104.4 76.1C103.1 75.3 101.4 74.9 99.3 74.9C97.7 74.9 96.1 75.2 94.8 75.9C93.4 76.5 92.2 77.5 91.4 78.6C90.6 79.8 90.2 81.2 90.2 82.9H76.8C76.8 79.2 77.7 76 79.7 73.2C81.7 70.5 84.4 68.3 87.8 66.8C91.2 65.2 94.9 64.4 98.9 64.4C103.5 64.4 107.5 65.2 110.9 66.7C114.4 68.1 117 70.3 119 73.1C120.9 76 121.8 79.5 121.8 83.7C121.8 85.8 121.3 87.9 120.4 89.9C119.4 91.9 117.9 93.7 116.1 95.3C114.3 96.9 112 98.1 109.4 99.1C106.8 100 103.8 100.5 100.6 100.5H91.3V93.4ZM91.3 103.5V96.6H100.6C104.2 96.6 107.5 97 110.2 97.9C113 98.7 115.4 99.9 117.2 101.5C119.1 103 120.6 104.9 121.5 107C122.5 109.1 123 111.5 123 114C123 117.2 122.4 120 121.1 122.5C119.9 124.9 118.2 127 116 128.7C113.9 130.4 111.3 131.7 108.4 132.6C105.5 133.4 102.4 133.9 98.9 133.9C96.1 133.9 93.3 133.5 90.5 132.7C87.8 131.9 85.3 130.7 83.1 129.1C80.9 127.5 79.2 125.5 77.8 123.1C76.5 120.7 75.9 117.8 75.9 114.4H89.3C89.3 116.2 89.7 117.7 90.6 119.1C91.4 120.4 92.6 121.5 94.1 122.3C95.7 123.1 97.4 123.4 99.3 123.4C101.4 123.4 103.3 123.1 104.8 122.3C106.3 121.5 107.5 120.4 108.3 118.9C109.1 117.5 109.5 115.8 109.5 113.9C109.5 111.4 109.1 109.4 108.2 107.9C107.3 106.4 106 105.3 104.4 104.6C102.7 103.9 100.7 103.5 98.4 103.5H91.3Z" fill="#741F10"/>
</svg>
