<svg width="140" height="158" viewBox="0 0 140 158" fill="none" xmlns="http://www.w3.org/2000/svg">
<path d="M37.5 157.299L78.7 93.9992L42.2 70.1992L1 133.499H27.4L37.5 157.299Z" fill="#3CA5EE"/>
<path d="M103.4 157.299L62.2 93.9992L98.7 70.1992L140 133.499H113.5L103.4 157.299Z" fill="#3CA5EE"/>
<path d="M30.5 88.5L110.5 88L118.7 101C109 112 95.6 119.7 80.5 122.1L70.5 107L60.4001 122.3C45.2001 120 31.6 112.5 21.8 101.6L30.5 88.5Z" fill="#2898BA"/>
<path d="M70 120C103.1 120 130 93.1 130 60C130 26.8 103.1 0 70 0C36.8 0 10 26.8 10 60C10 93.1 36.8 120 70 120Z" fill="#1D4AB0"/>
<path d="M70 112C98.7 112 122 88.7 122 60C122 31.2 98.7 8 70 8C41.2 8 18 31.2 18 60C18 88.7 41.2 112 70 112Z" fill="#173A89"/>
<path d="M70 110C97.6 110 120 87.6 120 60C120 32.3 97.6 10 70 10C42.3 10 20 32.3 20 60C20 87.6 42.3 110 70 110Z" fill="#C8E0FF"/>
<path d="M108.6 28C117.2 38.1 121.3 51.3 120.1 64.5C118.9 77.7 112.6 89.9 102.4 98.4C92.2 106.9 79.1 111 65.9 109.8C52.7 108.7 40.5 102.3 32 92.1C37.1 98.2 46 100.7 56.8 99C67.6 97.3 79.4 91.6 89.5 83C99.7 74.5 107.4 63.9 111 53.6C114.6 43.3 113.8 34.1 108.6 28Z" fill="#60A5FA"/>
<path d="M80.5156 24.0469H82.4844V34.8281H81.6875C78.125 34.8281 74.9531 35.3594 72.1719 36.4219C69.3906 37.4844 67.0312 39 65.0938 40.9688C63.1875 42.9062 61.7188 45.25 60.6875 48C59.6875 50.75 59.1875 53.8281 59.1875 57.2344V68.5781C59.1875 71.0156 59.4219 73.1719 59.8906 75.0469C60.3906 76.8906 61.0938 78.4375 62 79.6875C62.9375 80.9062 64.0312 81.8281 65.2812 82.4531C66.5312 83.0469 67.9375 83.3438 69.5 83.3438C70.9688 83.3438 72.2969 83.0312 73.4844 82.4062C74.7031 81.7812 75.7344 80.9062 76.5781 79.7812C77.4531 78.625 78.1094 77.2812 78.5469 75.75C79.0156 74.1875 79.25 72.4844 79.25 70.6406C79.25 68.7969 79.0156 67.0938 78.5469 65.5312C78.1094 63.9688 77.4531 62.625 76.5781 61.5C75.7031 60.3438 74.6406 59.4531 73.3906 58.8281C72.1406 58.2031 70.7344 57.8906 69.1719 57.8906C67.0469 57.8906 65.1719 58.3906 63.5469 59.3906C61.9531 60.3594 60.7031 61.6094 59.7969 63.1406C58.8906 64.6719 58.4062 66.2812 58.3438 67.9688L54.2656 65.3438C54.3594 62.9375 54.8594 60.6562 55.7656 58.5C56.7031 56.3438 57.9844 54.4375 59.6094 52.7812C61.2656 51.0938 63.25 49.7812 65.5625 48.8438C67.875 47.875 70.4844 47.3906 73.3906 47.3906C76.5781 47.3906 79.375 48 81.7812 49.2188C84.2188 50.4375 86.25 52.1094 87.875 54.2344C89.5 56.3594 90.7188 58.8125 91.5312 61.5938C92.3438 64.375 92.75 67.3438 92.75 70.5C92.75 73.8125 92.2031 76.8906 91.1094 79.7344C90.0469 82.5781 88.5 85.0625 86.4688 87.1875C84.4688 89.3125 82.0625 90.9688 79.25 92.1562C76.4375 93.3438 73.2812 93.9375 69.7812 93.9375C66.1562 93.9375 62.8594 93.2812 59.8906 91.9688C56.9531 90.625 54.4219 88.75 52.2969 86.3438C50.1719 83.9375 48.5312 81.0781 47.375 77.7656C46.25 74.4531 45.6875 70.8281 45.6875 66.8906V61.6406C45.6875 56.1406 46.4844 51.1094 48.0781 46.5469C49.7031 41.9531 52.0312 37.9844 55.0625 34.6406C58.0938 31.2656 61.75 28.6562 66.0312 26.8125C70.3125 24.9688 75.1406 24.0469 80.5156 24.0469Z" fill="#0C245B"/>
</svg>
