<?xml version="1.0" encoding="UTF-8"?>
<svg id="_レイヤー_1" data-name="レイヤー 1" xmlns="http://www.w3.org/2000/svg" viewBox="0 0 173.9 37.14">
  <defs>
    <style>
      .cls-1 {
        fill: #2e5d82;
      }

      .cls-1, .cls-2 {
        stroke-width: 0px;
      }

      .cls-2 {
        fill: #50afb0;
      }
    </style>
  </defs>
  <path class="cls-2" d="M139.34,32.6c-4.99,0-9.28-2.85-11.17-7.15,0,.17-.02.34-.02.5,0,6.18,5.01,11.19,11.19,11.19s11.19-5.01,11.19-11.19c0-.16-.01-.33-.02-.5-1.89,4.3-6.18,7.15-11.17,7.15Z"/>
  <path class="cls-1" d="M139.34,8.19c2.74,3.89,5.2,8.44,5.2,11.37s-2.33,5.2-5.2,5.2-5.2-2.33-5.2-5.2,2.45-7.48,5.2-11.37ZM134.19,6.69c-2.57,3.86-5.15,8.75-5.15,12.87,0,2.84,1.15,5.42,3.02,7.28s4.44,3.02,7.28,3.02,5.42-1.15,7.28-3.02,3.02-4.44,3.02-7.28c0-4.12-2.57-9.01-5.15-12.87-2.57-3.86-5.15-6.69-5.15-6.69,0,0-2.57,2.83-5.15,6.69Z"/>
  <path class="cls-2" d="M6.27,12.91v4.82h9.32c1.45,0,2.62,1.17,2.62,2.62h0c0,1.45-1.17,2.76-2.62,2.76H6.27s0,8.79,0,8.79c0,1.45-1.17,2.62-2.62,2.62h-1.03c-1.45,0-2.62-1.17-2.62-2.62V10.55c0-1.79,1.46-3.25,3.25-3.25h14.25c1.45,0,2.62,1.17,2.62,2.62v.37c0,1.45-1.17,2.62-2.62,2.62H6.27Z"/>
  <path class="cls-2" d="M46.32,23.24c0,7.32-5.01,11.36-11.17,11.36s-11.17-4.04-11.17-11.36v-12.88c0-1.69,1.37-3.06,3.06-3.06h0c1.69,0,3.06,1.37,3.06,3.06v13.19c0,3.85,2.27,5.26,5.05,5.26s5.05-1.41,5.05-5.26v-13.19c0-1.69,1.37-3.06,3.06-3.06h0c1.69,0,3.06,1.37,3.06,3.06v12.88Z"/>
  <path class="cls-2" d="M70.43,34.26c-2.28,0-2.95-.86-3.78-2.01-2.39-3.33-8.82-13.82-8.82-13.82v12.78c0,1.68-1.36,3.04-3.04,3.04h0c-1.68,0-3.04-1.36-3.04-3.04V10.88c0-1.98,1.6-3.58,3.58-3.58h.2c1.24,0,2.34.68,3.05,1.7,2.3,3.3,8.54,13.82,8.54,13.82.42.69.96,1.66.96,1.66v-14.14c0-1.68,1.36-3.04,3.04-3.04h0c1.68,0,3.04,1.36,3.04,3.04v20.23c0,2.04-1.65,3.69-3.69,3.69h-.04Z"/>
  <path class="cls-1" d="M88.21,7.31h-7.92v27.23h7.92c8.41,0,12.17-6.76,12.17-13.46,0-6.35-3.19-13.77-12.17-13.77ZM95.1,21.07c0,3.93-1.81,8.53-6.89,8.53h-2.53V12.24h2.53c5.08,0,6.89,4.56,6.89,8.83Z"/>
  <path class="cls-1" d="M123.27,15.56c0-5.09-3.58-8.25-9.35-8.25h-9.01v27.23h5.35v-10.88h2.13l7.61,10.88h6.61l-8.59-11.52c3.39-1.15,5.25-3.79,5.25-7.46ZM110.25,12.24h3.47c2.73,0,4.23,1.16,4.23,3.28s-1.42,3.2-4.23,3.2h-3.47v-6.48Z"/>
  <path class="cls-1" d="M164.59,7.31h-9.3v27.23h5.35v-10.03h3.94c5.83,0,9.32-3.45,9.32-8.52s-3.57-8.68-9.32-8.68ZM168.78,15.94c0,2.15-1.4,3.63-4.27,3.63h-3.87v-7.33h3.87c2.83,0,4.27,1.53,4.27,3.7Z"/>
</svg>