<svg viewBox="30 40 140 158" fill="none" xmlns="http://www.w3.org/2000/svg">
  <path d="M67.5 197.3L108.7 134L72.2 110.2L31 173.5L57.4 173.5L67.5 197.3Z" fill="#3CA5EE"/>
  <path d="M133.4 197.3L92.2 134L128.7 110.2L170 173.5L143.5 173.5L133.4 197.3Z" fill="#3CA5EE"/>
  <path d="M60.5 128.5L140.5 128L148.7 141C139 152 125.6 159.7 110.5 162.1L100.5 147L90.4 162.3C75.2 160 61.6 152.5 51.8 141.6L60.5 128.5Z" fill="#2898BA"/>
  <path d="M100 160C133.1 160 160 133.1 160 100C160 66.8 133.1 40 100 40C66.8 40 40 66.8 40 100C40 133.1 66.8 160 100 160Z" fill="#1D4AB0"/>
  <path d="M100 152C128.7 152 152 128.7 152 100C152 71.2 128.7 48 100 48C71.2 48 48 71.2 48 100C48 128.7 71.2 152 100 152Z" fill="#173A89"/>
  <path d="M100 150C127.6 150 150 127.6 150 100C150 72.3 127.6 50 100 50C72.3 50 50 72.3 50 100C50 127.6 72.3 150 100 150Z" fill="#C8E0FF"/>
  <path d="M138.6 68C147.2 78.1 151.3 91.3 150.1 104.5C148.9 117.7 142.6 129.9 132.4 138.4C122.2 146.9 109.1 151 95.9 149.8C82.7 148.7 70.5 142.3 62 132.1C67.1 138.2 76 140.7 86.8 139C97.6 137.3 109.4 131.6 119.5 123C129.7 114.5 137.4 103.9 141 93.6C144.6 83.3 143.8 74.1 138.6 68Z" fill="#60A5FA"/>
  <path d="M90.2 102.2L79.5 99.6L83.3 65.4H121.3V76.2H94.3L92.7 91.2C93.6 90.7 94.9 90.1 96.7 89.5C98.6 88.9 100.6 88.6 102.9 88.6C106.1 88.6 109.1 89.1 111.6 90.1C114.1 91.2 116.3 92.6 118 94.6C119.8 96.5 121.2 98.9 122.1 101.7C123 104.5 123.5 107.7 123.5 111.3C123.5 114.3 123 117.1 122.1 119.9C121.2 122.6 119.8 125 117.9 127.1C116 129.2 113.6 130.9 110.8 132.1C108 133.3 104.6 133.9 100.7 133.9C97.8 133.9 95 133.4 92.2 132.6C89.6 131.7 87.1 130.4 85 128.7C82.8 127 81.1 125 79.8 122.6C78.5 120.1 77.9 117.3 77.8 114.2H91.1C91.3 116.1 91.8 117.8 92.6 119.2C93.4 120.5 94.5 121.6 95.9 122.3C97.2 123.1 98.8 123.4 100.6 123.4C102.3 123.4 103.8 123.1 105 122.5C106.2 121.8 107.2 120.9 107.9 119.8C108.7 118.6 109.2 117.2 109.5 115.7C109.9 114.1 110.1 112.4 110.1 110.6C110.1 108.8 109.9 107.1 109.5 105.6C109 104.1 108.4 102.9 107.5 101.8C106.6 100.7 105.4 99.9 104 99.3C102.7 98.7 101.1 98.4 99.3 98.4C96.8 98.4 94.9 98.8 93.5 99.6C92.2 100.3 91.1 101.2 90.2 102.2Z" fill="#0C245B"/>
</svg>
