<svg viewBox="30 40 140 158" fill="none" xmlns="http://www.w3.org/2000/svg">
  <path d="M67.5 197.3L108.7 134L72.2 110.2L31 173.5L57.4 173.5L67.5 197.3Z" fill="#3CA5EE"/>
  <path d="M133.4 197.3L92.2 134L128.7 110.2L170 173.5L143.5 173.5L133.4 197.3Z" fill="#3CA5EE"/>
  <path d="M60.5 128.5L140.5 128L148.7 141C139 152 125.6 159.7 110.5 162.1L100.5 147L90.4 162.3C75.2 160 61.6 152.5 51.8 141.6L60.5 128.5Z" fill="#2898BA"/>
  <path d="M100 160C133.1 160 160 133.1 160 100C160 66.8 133.1 40 100 40C66.8 40 40 66.8 40 100C40 133.1 66.8 160 100 160Z" fill="#A5A5A5"/>
  <path d="M100 152C128.7 152 152 128.7 152 100C152 71.2 128.7 48 100 48C71.2 48 48 71.2 48 100C48 128.7 71.2 152 100 152Z" fill="#929292"/>
  <path d="M100 150C127.6 150 150 127.6 150 100C150 72.3 127.6 50 100 50C72.3 50 50 72.3 50 100C50 127.6 72.3 150 100 150Z" fill="#E5E5E5"/>
  <path d="M138.6 68C147.2 78.1 151.3 91.3 150.1 104.5C148.9 117.7 142.6 129.9 132.4 138.4C122.2 146.9 109.1 151 95.9 149.8C82.7 148.7 70.5 142.3 62 132.1C67.1 138.2 76 140.7 86.8 139C97.6 137.3 109.4 131.6 119.5 123C129.7 114.5 137.4 103.9 141 93.6C144.6 83.3 143.8 74.1 138.6 68Z" fill="#CCCCCC"/>
  <path d="M123.8 122.5V133H77.6V124L99.4 100.6C101.6 98.2 103.4 96 104.6 94.2C105.9 92.3 106.8 90.6 107.4 89.1C108 87.6 108.3 86.2 108.3 84.8C108.3 82.8 107.9 81 107.2 79.6C106.5 78.1 105.5 76.9 104.2 76.1C102.9 75.3 101.3 74.9 99.4 74.9C97.3 74.9 95.6 75.4 94.1 76.4C92.6 77.4 91.5 78.8 90.8 80.5C90 82.3 89.6 84.3 89.6 86.5H76.2C76.2 82.5 77.2 78.8 79.1 75.5C81 72.1 83.7 69.4 87.2 67.5C90.7 65.4 94.9 64.4 99.7 64.4C104.4 64.4 108.4 65.2 111.6 66.8C114.9 68.3 117.4 70.5 119.1 73.3C120.8 76.2 121.6 79.6 121.6 83.5C121.6 85.8 121.3 88 120.5 90.1C119.8 92.2 118.8 94.3 117.5 96.4C116.2 98.5 114.6 100.6 112.8 102.7C110.9 104.8 108.8 107.1 106.6 109.3L94.8 122.5H123.8Z" fill="#666666"/>
</svg>
